if (_typeface_js && _typeface_js.loadFace) _typeface_js.loadFace({"glyphs":{"0":{"ha":772,"x_min":51,"x_max":721,"o":"m 386 -17 q 219 31 283 -17 q 117 153 154 78 q 65 323 79 228 q 51 514 51 418 q 65 705 51 610 q 117 875 79 800 q 219 997 154 950 q 386 1044 283 1044 q 553 997 488 1044 q 656 875 618 950 q 707 705 693 800 q 721 514 721 610 q 707 323 721 418 q 656 153 693 228 q 553 31 618 78 q 386 -17 488 -17 m 386 947 q 298 923 338 947 q 229 847 258 899 q 184 713 200 794 q 168 514 168 631 q 184 315 168 397 q 229 180 200 232 q 298 104 258 128 q 386 81 338 81 q 474 104 433 81 q 543 180 514 128 q 588 315 572 232 q 604 514 604 397 q 588 713 604 631 q 543 847 572 794 q 474 923 514 899 q 386 947 433 947 z "},"1":{"ha":772,"x_min":181,"x_max":501,"o":"m 385 867 q 288 804 343 835 q 181 751 233 774 l 181 858 q 256 896 215 872 q 332 947 296 919 q 399 999 368 974 q 446 1044 429 1025 l 501 1044 l 501 0 l 385 0 l 385 867 z "},"2":{"ha":772,"x_min":67,"x_max":693,"o":"m 67 99 l 403 469 q 467 542 436 506 q 522 616 497 579 q 560 690 546 653 q 575 761 575 726 q 525 888 575 836 q 383 939 475 939 q 297 922 333 939 q 237 874 261 904 q 201 803 213 843 q 186 715 189 763 l 78 715 q 106 870 79 807 q 177 972 133 933 q 275 1028 221 1011 q 385 1044 329 1044 q 517 1023 460 1044 q 613 963 575 1001 q 672 874 651 925 q 692 765 692 824 q 681 683 692 722 q 649 603 671 643 q 596 523 628 564 q 521 435 564 482 l 215 106 l 693 106 l 693 0 l 67 0 l 67 99 z "},"3":{"ha":772,"x_min":54,"x_max":700,"o":"m 215 594 l 532 922 l 99 922 l 99 1028 l 663 1028 l 663 922 l 371 624 l 374 621 q 397 624 385 624 q 421 625 410 625 q 525 606 475 625 q 614 551 575 588 q 676 458 653 514 q 700 326 700 401 q 678 197 700 260 q 615 88 657 135 q 511 12 574 40 q 365 -17 449 -17 q 248 -2 297 -17 q 165 36 199 13 q 111 90 132 60 q 78 150 90 119 q 62 208 67 181 q 54 257 57 236 l 163 265 q 180 188 168 222 q 215 130 192 154 q 275 93 239 106 q 364 81 311 81 q 456 98 415 81 q 524 147 496 115 q 568 220 553 178 q 583 311 583 263 q 566 406 583 364 q 519 476 549 447 q 449 521 489 506 q 361 536 408 536 q 280 522 313 536 q 224 490 247 508 l 215 496 l 215 594 z "},"4":{"ha":772,"x_min":49,"x_max":724,"o":"m 496 282 l 49 282 l 49 375 l 500 1044 l 604 1044 l 604 379 l 724 379 l 724 282 l 604 282 l 604 0 l 496 0 l 496 282 m 496 881 l 493 881 l 164 379 l 496 379 l 496 881 z "},"5":{"ha":772,"x_min":67,"x_max":706,"o":"m 107 1028 l 658 1028 l 658 922 l 203 922 l 186 583 l 189 583 q 267 648 217 624 q 397 672 318 672 q 505 655 450 672 q 604 597 560 638 q 677 492 649 557 q 706 332 706 428 q 688 214 706 275 q 630 101 669 153 q 529 17 590 50 q 382 -17 468 -17 q 262 -2 317 -17 q 165 46 207 13 q 98 131 124 79 q 67 258 72 183 l 183 268 q 238 133 188 186 q 374 81 288 81 q 456 96 417 81 q 524 142 494 111 q 572 219 554 172 q 589 331 589 267 q 574 426 589 383 q 530 501 558 469 q 463 549 501 532 q 378 567 424 567 q 256 535 300 567 q 192 461 213 503 l 82 461 l 107 1028 z "},"6":{"ha":772,"x_min":54,"x_max":718,"o":"m 601 315 q 547 480 601 418 q 388 542 493 542 q 308 526 346 542 q 244 480 271 510 q 201 408 217 450 q 185 317 185 367 q 198 222 185 265 q 238 147 211 178 q 302 98 264 115 q 389 81 340 81 q 483 100 443 81 q 549 151 522 119 q 588 226 575 183 q 601 315 601 269 m 581 783 q 526 901 565 856 q 411 947 488 947 q 295 910 340 947 q 224 810 250 872 q 185 669 197 749 q 171 507 174 590 l 174 504 q 206 554 186 529 q 254 600 225 579 q 322 634 283 621 q 408 647 360 647 q 538 623 481 647 q 636 555 596 599 q 697 451 676 511 q 718 319 718 392 q 696 193 718 254 q 631 85 674 132 q 528 11 589 39 q 392 -17 468 -17 q 224 24 289 -17 q 121 133 158 64 q 69 294 83 201 q 54 492 54 388 q 147 903 54 761 q 407 1044 240 1044 q 558 1011 501 1044 q 644 934 614 978 q 683 849 674 890 q 694 792 693 808 l 581 783 z "},"7":{"ha":772,"x_min":69,"x_max":694,"o":"m 69 1028 l 694 1028 l 694 913 q 567 695 628 810 q 456 463 506 581 q 372 227 407 344 q 322 0 338 110 l 194 0 q 217 115 200 47 q 262 264 235 183 q 325 433 289 344 q 403 608 361 521 q 491 775 444 694 q 586 922 538 856 l 69 922 l 69 1028 z "},"8":{"ha":772,"x_min":60,"x_max":713,"o":"m 550 776 q 505 899 550 851 q 386 947 460 947 q 268 899 314 947 q 222 776 222 851 q 265 653 222 703 q 386 604 308 604 q 507 653 464 604 q 550 776 550 703 m 386 -17 q 248 8 308 -17 q 146 73 188 32 q 82 168 104 114 q 60 283 60 222 q 112 466 60 397 q 260 563 164 535 l 260 565 q 144 644 182 588 q 106 778 106 701 q 126 882 106 833 q 184 967 147 931 q 272 1024 221 1003 q 386 1044 324 1044 q 500 1024 449 1044 q 588 967 551 1003 q 646 882 625 931 q 667 778 667 833 q 628 644 667 701 q 513 565 590 588 l 513 563 q 660 466 608 535 q 713 283 713 397 q 690 168 713 222 q 626 73 668 114 q 524 8 585 32 q 386 -17 463 -17 m 596 297 q 581 379 596 340 q 540 446 567 418 q 474 490 513 474 q 386 507 435 507 q 299 490 338 507 q 233 446 260 474 q 191 379 206 418 q 176 297 176 340 q 233 138 176 194 q 386 81 290 81 q 540 138 483 81 q 596 297 596 194 z "},"9":{"ha":772,"x_min":54,"x_max":718,"o":"m 588 711 q 574 806 588 763 q 534 881 560 850 q 470 930 508 913 q 383 947 432 947 q 290 928 329 947 q 224 876 250 908 q 184 801 197 844 q 171 713 171 758 q 225 548 171 610 q 385 486 279 486 q 464 502 426 486 q 528 548 501 518 q 572 619 556 578 q 588 711 588 661 m 192 244 q 213 178 200 208 q 245 126 225 149 q 294 92 265 104 q 361 81 322 81 q 477 118 432 81 q 549 217 522 156 q 587 358 575 279 q 601 521 599 438 l 599 524 q 567 474 586 499 q 518 428 547 449 q 451 394 489 407 q 364 381 413 381 q 233 405 290 381 q 136 473 176 429 q 75 576 96 517 q 54 708 54 636 q 76 835 54 774 q 141 942 99 896 q 244 1017 183 989 q 381 1044 304 1044 q 548 1004 482 1044 q 651 895 614 964 q 703 733 689 826 q 718 536 718 640 q 625 125 718 267 q 365 -17 532 -17 q 215 17 271 -17 q 128 94 158 50 q 89 178 99 138 q 78 236 79 219 l 192 244 z "},"!":{"ha":464,"x_min":154,"x_max":310,"o":"m 178 1044 l 286 1044 l 286 238 l 178 238 l 178 1044 m 154 61 q 177 116 154 93 q 232 139 200 139 q 287 116 264 139 q 310 61 310 93 q 287 6 310 29 q 232 -17 264 -17 q 177 6 200 -17 q 154 61 154 29 z "},"\"":{"ha":463,"x_min":50,"x_max":413,"o":"m 304 1044 l 413 1044 l 413 694 l 304 694 l 304 1044 m 50 1044 l 158 1044 l 158 694 l 50 694 l 50 1044 z "},"#":{"ha":772,"x_min":31,"x_max":742,"o":"m 492 629 l 313 629 l 281 399 l 460 399 l 492 629 m 449 318 l 269 318 l 225 0 l 136 0 l 181 318 l 31 318 l 31 399 l 192 399 l 224 629 l 74 629 l 74 710 l 235 710 l 279 1028 l 368 1028 l 324 710 l 503 710 l 547 1028 l 636 1028 l 592 710 l 742 710 l 742 629 l 581 629 l 549 399 l 699 399 l 699 318 l 538 318 l 493 0 l 404 0 l 449 318 z "},"$":{"ha":772,"x_min":56,"x_max":717,"o":"m 422 81 q 555 136 510 88 q 600 271 600 185 q 553 394 600 350 q 422 458 506 439 l 422 81 m 350 478 q 262 506 310 489 q 172 554 214 524 q 103 634 131 585 q 75 758 75 683 q 93 862 75 813 q 146 950 111 911 q 232 1014 181 989 q 350 1044 283 1039 l 350 1149 l 422 1149 l 422 1044 q 511 1028 464 1042 q 599 983 558 1015 q 667 895 639 950 q 701 756 696 840 l 585 756 q 579 805 583 775 q 559 864 575 835 q 510 917 543 893 q 422 947 478 940 l 422 581 q 547 538 492 563 q 639 480 601 514 q 697 400 676 446 q 717 293 717 354 q 699 182 717 235 q 646 88 682 129 q 554 19 610 46 q 422 -17 499 -8 l 422 -178 l 350 -178 l 350 -17 q 221 13 275 -12 q 131 78 167 38 q 78 172 96 118 q 56 286 60 225 l 172 286 q 183 219 174 253 q 214 156 193 185 q 268 107 235 128 q 350 81 301 86 l 350 478 m 350 947 q 285 930 314 944 q 235 892 256 915 q 203 838 214 868 q 192 774 192 807 q 206 702 192 731 q 242 654 219 674 q 292 623 264 635 q 350 601 321 611 l 350 947 z "},"%":{"ha":1389,"x_min":158,"x_max":1231,"o":"m 497 788 q 491 857 497 825 q 471 913 485 889 q 435 950 457 936 q 382 964 413 964 q 328 950 350 964 q 293 913 307 936 q 273 857 279 889 q 267 788 267 825 q 273 718 267 750 q 293 663 279 686 q 328 625 307 639 q 382 611 350 611 q 435 625 413 611 q 471 663 457 639 q 491 718 485 686 q 497 788 497 750 m 158 788 q 178 903 158 854 q 231 983 199 951 q 303 1029 264 1014 q 382 1044 343 1044 q 461 1029 421 1044 q 533 983 501 1014 q 585 903 565 951 q 606 788 606 854 q 585 672 606 721 q 533 592 565 624 q 461 546 501 561 q 382 531 421 531 q 303 546 343 531 q 231 592 264 561 q 178 672 199 624 q 158 788 158 721 m 1122 240 q 1116 310 1122 278 q 1096 365 1110 342 q 1060 403 1082 389 q 1007 417 1038 417 q 953 403 975 417 q 918 365 932 389 q 898 310 904 342 q 892 240 892 278 q 898 171 892 203 q 918 115 904 139 q 953 78 932 92 q 1007 64 975 64 q 1060 78 1038 64 q 1096 115 1082 92 q 1116 171 1110 139 q 1122 240 1122 203 m 783 240 q 803 356 783 307 q 856 435 824 404 q 928 482 889 467 q 1007 497 968 497 q 1086 482 1046 497 q 1158 435 1126 467 q 1210 356 1190 404 q 1231 240 1231 307 q 1210 125 1231 174 q 1158 45 1190 76 q 1086 -1 1126 14 q 1007 -17 1046 -17 q 928 -1 968 -17 q 856 45 889 14 q 803 125 824 76 q 783 240 783 174 m 972 1075 l 1060 1075 l 417 -47 l 329 -47 l 972 1075 z "},"&":{"ha":1003,"x_min":118,"x_max":926,"o":"m 710 113 q 662 65 690 89 q 597 23 633 42 q 515 -8 560 4 q 418 -19 471 -19 q 293 3 349 -19 q 199 64 238 25 q 139 157 160 103 q 118 274 118 211 q 147 404 118 350 q 217 494 176 458 q 299 553 257 531 q 369 590 342 575 q 301 700 329 649 q 274 815 274 751 q 285 882 274 847 q 323 946 297 917 q 389 994 349 975 q 486 1014 429 1014 q 576 998 538 1014 q 640 956 614 982 q 678 894 665 929 q 690 821 690 860 q 663 702 690 750 q 578 611 635 654 l 514 563 l 715 282 q 751 370 736 322 q 772 458 767 418 l 881 458 q 867 395 876 429 q 845 326 858 361 q 816 260 832 292 q 781 203 800 228 l 926 0 l 789 0 l 710 113 m 421 513 q 284 411 333 465 q 235 275 235 357 q 247 206 235 240 q 283 142 258 171 q 344 96 307 114 q 432 78 382 78 q 563 108 507 78 q 654 182 618 138 l 421 513 m 382 807 q 404 727 382 765 q 463 640 426 689 q 548 715 514 674 q 582 811 582 757 q 556 894 582 864 q 485 925 529 925 q 413 898 444 925 q 382 807 382 871 z "},"'":{"ha":386,"x_min":139,"x_max":247,"o":"m 139 1044 l 247 1044 l 247 694 l 139 694 l 139 1044 z "},"(":{"ha":464,"x_min":97,"x_max":447,"o":"m 364 -276 q 283 -174 329 -236 q 196 -27 238 -112 q 126 167 154 58 q 97 410 97 276 q 126 652 97 543 q 196 847 154 761 q 283 994 238 932 q 364 1096 329 1056 l 447 1025 q 369 927 411 986 q 290 790 326 868 q 230 616 254 711 q 206 410 206 521 q 230 203 206 299 q 290 30 254 108 q 369 -108 326 -49 q 447 -206 411 -167 l 364 -276 z "},")":{"ha":464,"x_min":17,"x_max":367,"o":"m 17 -206 q 95 -108 53 -167 q 174 30 138 -49 q 234 203 210 108 q 258 410 258 299 q 234 616 258 521 q 174 790 210 711 q 95 927 138 868 q 17 1025 53 986 l 100 1096 q 181 994 135 1056 q 268 847 226 932 q 338 652 310 761 q 367 410 367 543 q 338 167 367 276 q 268 -27 310 58 q 181 -174 226 -112 q 100 -276 135 -236 l 17 -206 z "},"*":{"ha":772,"x_min":136,"x_max":636,"o":"m 136 840 l 158 910 l 350 840 l 350 1044 l 422 1044 l 422 840 l 611 910 l 636 840 l 439 775 l 567 610 l 506 565 l 386 736 l 267 565 l 206 610 l 333 775 l 136 840 z "},"+":{"ha":833,"x_min":65,"x_max":768,"o":"m 376 311 l 65 311 l 65 392 l 376 392 l 376 703 l 457 703 l 457 392 l 768 392 l 768 311 l 457 311 l 457 0 l 376 0 l 376 311 z "},",":{"ha":386,"x_min":19,"x_max":267,"o":"m 157 164 l 267 111 l 92 -225 l 19 -194 l 157 164 z "},"-":{"ha":464,"x_min":61,"x_max":403,"o":"m 61 417 l 403 417 l 403 311 l 61 311 l 61 417 z "},".":{"ha":386,"x_min":115,"x_max":271,"o":"m 115 61 q 138 116 115 93 q 193 139 161 139 q 248 116 225 139 q 271 61 271 93 q 248 6 271 29 q 193 -17 225 -17 q 138 6 161 -17 q 115 61 115 29 z "},"/":{"ha":540,"x_min":22,"x_max":518,"o":"m 429 1064 l 518 1064 l 111 -19 l 22 -19 l 429 1064 z "},":":{"ha":386,"x_min":115,"x_max":271,"o":"m 115 594 q 138 649 115 626 q 193 672 161 672 q 248 649 225 672 q 271 594 271 626 q 248 540 271 563 q 193 517 225 517 q 138 540 161 517 q 115 594 115 563 m 115 61 q 138 116 115 93 q 193 139 161 139 q 248 116 225 139 q 271 61 271 93 q 248 6 271 29 q 193 -17 225 -17 q 138 6 161 -17 q 115 61 115 29 z "},";":{"ha":386,"x_min":19,"x_max":271,"o":"m 157 164 l 267 111 l 92 -225 l 19 -194 l 157 164 m 115 594 q 138 649 115 626 q 193 672 161 672 q 248 649 225 672 q 271 594 271 626 q 248 540 271 563 q 193 517 225 517 q 138 540 161 517 q 115 594 115 563 z "},"<":{"ha":833,"x_min":65,"x_max":768,"o":"m 65 392 l 768 714 l 768 628 l 164 351 l 768 75 l 768 -11 l 65 311 l 65 392 z "},"=":{"ha":833,"x_min":65,"x_max":768,"o":"m 65 529 l 768 529 l 768 449 l 65 449 l 65 529 m 65 254 l 768 254 l 768 174 l 65 174 l 65 254 z "},">":{"ha":833,"x_min":65,"x_max":768,"o":"m 669 351 l 65 628 l 65 714 l 768 392 l 768 311 l 65 -11 l 65 75 l 669 351 z "},"?":{"ha":772,"x_min":111,"x_max":661,"o":"m 282 308 q 286 388 282 350 q 304 459 290 425 q 343 524 318 493 q 408 588 368 556 q 469 638 443 614 q 511 688 494 663 q 536 742 528 713 q 544 808 544 771 q 503 921 544 875 q 386 967 463 967 q 260 913 300 967 q 219 772 219 858 l 111 772 q 122 867 111 815 q 163 962 133 918 q 247 1035 193 1006 q 389 1064 301 1064 q 494 1048 444 1064 q 581 1000 543 1032 q 640 919 618 968 q 661 803 661 869 q 649 715 661 753 q 615 647 638 678 q 561 587 593 615 q 490 528 529 558 q 437 474 457 501 q 406 422 417 447 q 393 372 396 396 q 390 328 390 349 l 390 238 l 282 238 l 282 308 m 258 61 q 281 116 258 93 q 336 139 304 139 q 391 116 368 139 q 414 61 414 93 q 391 6 414 29 q 336 -17 368 -17 q 281 6 304 -17 q 258 61 258 29 z "},"@":{"ha":1111,"x_min":14,"x_max":1097,"o":"m 694 614 q 658 725 694 692 q 575 758 621 758 q 468 726 515 758 q 388 644 421 693 q 337 537 354 594 q 319 429 319 479 q 356 316 319 354 q 456 278 393 278 q 549 310 506 278 q 626 390 593 342 q 676 499 658 439 q 694 614 694 558 m 769 813 l 860 813 l 725 394 q 708 343 715 367 q 701 303 701 319 q 721 282 701 286 q 768 278 740 278 q 852 297 808 278 q 933 355 896 315 q 993 454 969 394 q 1017 596 1017 514 q 982 764 1017 690 q 885 888 947 838 q 740 965 824 939 q 556 992 656 992 q 369 954 454 992 q 224 851 285 917 q 128 699 163 786 q 94 515 94 613 q 130 331 94 415 q 227 184 165 246 q 374 88 289 122 q 560 53 460 53 q 790 103 686 53 q 957 243 893 154 l 1046 243 q 962 133 1013 182 q 847 51 911 85 q 707 -1 782 17 q 550 -19 632 -19 q 349 16 446 -19 q 178 120 253 51 q 58 290 103 189 q 14 522 14 390 q 57 734 14 635 q 174 906 100 833 q 345 1022 247 979 q 553 1064 443 1064 q 774 1027 674 1064 q 946 926 874 990 q 1058 776 1018 863 q 1097 592 1097 690 q 1066 435 1097 507 q 983 310 1035 363 q 868 227 932 257 q 740 197 804 197 q 658 222 690 197 q 621 296 625 246 l 618 296 q 537 228 585 258 q 433 197 489 197 q 346 215 383 197 q 283 263 308 233 q 244 333 257 293 q 231 419 231 374 q 256 569 231 494 q 326 704 281 644 q 437 801 372 764 q 579 839 501 839 q 672 811 629 839 q 739 718 714 783 l 742 718 l 769 813 z "},"A":{"ha":928,"x_min":11,"x_max":917,"o":"m 465 897 l 463 897 l 286 400 l 642 400 l 465 897 m 404 1044 l 524 1044 l 917 0 l 785 0 l 681 294 l 247 294 l 143 0 l 11 0 l 404 1044 z "},"B":{"ha":849,"x_min":118,"x_max":776,"o":"m 118 1044 l 454 1044 q 575 1024 522 1044 q 664 971 628 1004 q 719 893 700 938 q 738 800 738 849 q 731 715 738 757 q 705 640 724 674 q 653 580 686 606 q 568 544 619 554 l 568 542 q 648 522 610 539 q 715 474 686 506 q 760 397 743 443 q 776 288 776 350 q 753 176 776 229 q 690 85 731 124 q 591 23 649 46 q 464 0 533 0 l 118 0 l 118 1044 m 453 106 q 542 121 503 106 q 607 162 581 136 q 647 222 633 188 q 660 296 660 257 q 648 360 660 326 q 608 420 636 393 q 536 465 581 447 q 426 483 492 483 l 235 483 l 235 106 l 453 106 m 408 581 q 558 630 504 581 q 613 771 613 679 q 598 856 613 822 q 557 910 583 890 q 494 939 531 931 q 413 947 457 947 l 235 947 l 235 581 l 408 581 z "},"C":{"ha":1157,"x_min":88,"x_max":1089,"o":"m 964 706 q 910 824 944 775 q 831 902 875 872 q 732 945 786 932 q 618 958 678 958 q 433 920 510 958 q 306 819 356 882 q 235 679 257 757 q 213 522 213 601 q 233 367 213 444 q 301 226 254 289 q 426 125 349 164 q 618 86 504 86 q 851 165 765 86 q 971 375 938 243 l 1089 361 q 1040 226 1072 294 q 950 103 1007 158 q 809 15 893 49 q 606 -19 725 -19 q 397 18 492 -19 q 233 126 301 56 q 126 297 164 196 q 88 522 88 397 q 128 740 88 640 q 240 911 168 839 q 408 1024 311 983 q 618 1064 506 1064 q 827 1029 743 1064 q 964 942 911 994 q 1044 829 1017 890 q 1082 714 1071 768 l 964 706 z "},"D":{"ha":1081,"x_min":129,"x_max":993,"o":"m 453 1044 q 713 998 608 1044 q 879 878 817 951 q 967 712 942 804 q 993 528 993 619 q 963 335 993 429 q 870 166 932 240 q 715 46 808 92 q 497 0 622 0 l 129 0 l 129 1044 l 453 1044 m 246 106 l 475 106 q 649 142 575 106 q 772 237 722 178 q 844 372 821 296 q 868 529 868 449 q 846 682 868 608 q 774 813 824 756 q 643 904 724 869 q 446 939 563 939 l 246 939 l 246 106 z "},"E":{"ha":772,"x_min":118,"x_max":707,"o":"m 118 1044 l 707 1044 l 707 939 l 235 939 l 235 589 l 693 589 l 693 483 l 235 483 l 235 106 l 707 106 l 707 0 l 118 0 l 118 1044 z "},"F":{"ha":772,"x_min":118,"x_max":707,"o":"m 118 1044 l 707 1044 l 707 939 l 235 939 l 235 589 l 693 589 l 693 483 l 235 483 l 235 0 l 118 0 l 118 1044 z "},"G":{"ha":1157,"x_min":88,"x_max":1069,"o":"m 592 561 l 1069 561 q 1042 345 1068 450 q 957 159 1015 240 q 807 29 899 78 q 582 -19 715 -19 q 372 20 464 -19 q 216 131 279 60 q 120 302 153 203 q 88 522 88 401 q 120 724 88 626 q 217 897 153 821 q 380 1018 282 972 q 607 1064 478 1064 q 774 1037 699 1064 q 906 965 850 1010 q 997 863 963 921 q 1042 743 1032 806 l 926 732 q 891 811 914 771 q 828 884 868 851 q 729 938 788 917 q 588 958 671 958 q 426 924 496 958 q 308 831 356 890 q 237 690 261 771 q 213 517 213 610 q 240 339 213 418 q 317 203 268 260 q 433 117 365 147 q 583 86 501 86 q 750 122 683 86 q 858 212 817 157 q 919 332 900 267 q 944 456 939 397 l 592 456 l 592 561 z "},"H":{"ha":1003,"x_min":118,"x_max":885,"o":"m 118 1044 l 235 1044 l 235 589 l 768 589 l 768 1044 l 885 1044 l 885 0 l 768 0 l 768 483 l 235 483 l 235 0 l 118 0 l 118 1044 z "},"I":{"ha":386,"x_min":135,"x_max":251,"o":"m 135 1044 l 251 1044 l 251 0 l 135 0 l 135 1044 z "},"J":{"ha":617,"x_min":22,"x_max":499,"o":"m 22 97 q 46 92 35 94 q 72 89 57 90 q 105 87 86 88 q 150 86 124 86 q 329 152 276 86 q 382 339 382 218 l 382 939 l 29 939 l 29 1044 l 499 1044 l 499 314 q 481 182 499 243 q 422 76 463 121 q 315 6 381 32 q 153 -19 249 -19 q 83 -17 117 -19 q 22 -7 50 -14 l 22 97 z "},"K":{"ha":849,"x_min":118,"x_max":838,"o":"m 118 1044 l 235 1044 l 235 551 l 238 551 l 674 1044 l 831 1044 l 367 544 l 838 0 l 676 0 l 238 529 l 235 529 l 235 0 l 118 0 l 118 1044 z "},"L":{"ha":772,"x_min":118,"x_max":724,"o":"m 118 1044 l 235 1044 l 235 106 l 724 106 l 724 0 l 118 0 l 118 1044 z "},"M":{"ha":1311,"x_min":124,"x_max":1188,"o":"m 124 1044 l 261 1044 l 656 164 l 1050 1044 l 1188 1044 l 1188 0 l 1071 0 l 1071 833 l 1068 833 l 693 0 l 618 0 l 243 826 l 240 826 l 240 0 l 124 0 l 124 1044 z "},"N":{"ha":1081,"x_min":124,"x_max":957,"o":"m 124 1044 l 250 1044 l 838 183 l 840 183 l 840 1044 l 957 1044 l 957 0 l 831 0 l 243 861 l 240 861 l 240 0 l 124 0 l 124 1044 z "},"O":{"ha":1236,"x_min":88,"x_max":1149,"o":"m 1024 522 q 1001 679 1024 601 q 930 819 979 757 q 803 920 881 882 q 618 958 726 958 q 433 920 510 958 q 306 819 356 882 q 235 679 257 757 q 213 522 213 601 q 235 381 213 457 q 306 240 257 306 q 431 130 354 174 q 618 86 508 86 q 805 130 728 86 q 931 240 882 174 q 1001 381 979 306 q 1024 522 1024 457 m 88 522 q 128 740 88 640 q 240 911 168 839 q 408 1024 311 983 q 618 1064 506 1064 q 831 1026 733 1064 q 999 919 928 989 q 1109 748 1069 849 q 1149 522 1149 647 q 1108 305 1149 404 q 997 133 1068 206 q 828 21 925 61 q 618 -19 731 -19 q 406 18 503 -19 q 238 126 308 56 q 127 297 167 196 q 88 522 88 397 z "},"P":{"ha":849,"x_min":118,"x_max":792,"o":"m 415 508 q 511 519 465 508 q 591 556 557 531 q 646 623 625 582 q 667 724 667 664 q 649 822 667 781 q 599 888 631 863 q 522 926 567 914 q 425 939 478 939 l 235 939 l 235 508 l 415 508 m 118 1044 l 450 1044 q 701 959 611 1044 q 792 722 792 874 q 765 585 792 644 q 691 485 739 525 q 577 424 643 444 q 433 403 511 403 l 235 403 l 235 0 l 118 0 l 118 1044 z "},"Q":{"ha":1236,"x_min":88,"x_max":1156,"o":"m 947 92 q 797 10 879 39 q 618 -19 714 -19 q 406 18 503 -19 q 238 126 308 56 q 127 297 167 196 q 88 522 88 397 q 128 740 88 640 q 240 911 168 839 q 408 1024 311 983 q 618 1064 506 1064 q 831 1026 733 1064 q 999 919 928 989 q 1109 748 1069 849 q 1149 522 1149 647 q 1115 322 1149 414 q 1019 158 1081 229 l 1156 22 l 1086 -47 l 947 92 m 754 285 l 824 354 l 933 244 q 1003 385 982 311 q 1024 522 1024 458 q 1001 679 1024 601 q 930 819 979 757 q 803 920 881 882 q 618 958 726 958 q 433 920 510 958 q 306 819 356 882 q 235 679 257 757 q 213 522 213 601 q 235 381 213 457 q 306 240 257 306 q 431 130 354 174 q 618 86 508 86 q 760 110 699 86 q 867 172 822 133 l 754 285 z "},"R":{"ha":849,"x_min":118,"x_max":839,"o":"m 443 553 q 610 601 547 553 q 674 743 674 649 q 653 839 674 801 q 600 899 633 876 q 524 930 567 921 q 436 939 482 939 l 235 939 l 235 553 l 443 553 m 439 447 l 235 447 l 235 0 l 118 0 l 118 1044 l 442 1044 q 615 1019 546 1044 q 725 953 685 993 q 782 862 765 913 q 799 760 799 811 q 778 638 799 689 q 723 549 757 586 q 647 490 689 513 q 561 458 604 468 l 839 0 l 696 0 l 439 447 z "},"S":{"ha":926,"x_min":83,"x_max":843,"o":"m 701 772 q 685 837 699 804 q 644 897 672 869 q 572 941 615 924 q 465 958 528 958 q 358 942 403 958 q 285 898 314 925 q 243 836 257 871 q 229 764 229 801 q 239 713 229 738 q 274 665 249 688 q 345 624 300 643 q 463 592 390 606 q 633 549 561 572 q 751 492 704 526 q 821 410 799 458 q 843 294 843 363 q 822 179 843 236 q 753 78 800 122 q 635 8 707 35 q 461 -19 563 -19 q 188 63 283 -19 q 83 289 92 144 l 201 289 q 285 135 217 185 q 467 86 353 86 q 581 104 533 86 q 660 150 629 122 q 704 213 690 178 q 718 283 718 249 q 705 356 718 326 q 663 406 692 385 q 586 442 633 426 q 469 472 539 457 q 313 514 379 490 q 201 571 246 538 q 135 651 157 604 q 113 764 113 699 q 138 883 113 828 q 209 978 163 938 q 320 1041 256 1018 q 464 1064 385 1064 q 625 1040 560 1064 q 731 975 690 1015 q 792 882 772 935 q 821 772 813 829 l 701 772 z "},"T":{"ha":772,"x_min":11,"x_max":761,"o":"m 328 939 l 11 939 l 11 1044 l 761 1044 l 761 939 l 444 939 l 444 0 l 328 0 l 328 939 z "},"U":{"ha":1003,"x_min":118,"x_max":885,"o":"m 118 1044 l 235 1044 l 235 364 q 254 240 235 293 q 308 153 274 188 q 392 103 343 119 q 501 86 442 86 q 604 103 556 86 q 690 157 653 121 q 747 251 726 193 q 768 388 768 308 l 768 1044 l 885 1044 l 885 386 q 855 207 885 283 q 773 81 825 131 q 651 6 721 31 q 501 -19 581 -19 q 334 7 406 -19 q 215 82 263 33 q 142 197 167 131 q 118 346 118 264 l 118 1044 z "},"V":{"ha":850,"x_min":14,"x_max":836,"o":"m 14 1044 l 146 1044 l 426 163 l 429 163 l 710 1044 l 836 1044 l 482 0 l 374 0 l 14 1044 z "},"W":{"ha":1311,"x_min":21,"x_max":1290,"o":"m 657 872 l 654 872 l 403 0 l 297 0 l 21 1044 l 144 1044 l 350 181 l 353 181 l 601 1044 l 710 1044 l 958 174 l 961 174 l 1167 1044 l 1290 1044 l 1014 0 l 908 0 l 657 872 z "},"X":{"ha":850,"x_min":14,"x_max":836,"o":"m 422 442 l 157 0 l 14 0 l 356 531 l 26 1044 l 175 1044 l 431 615 l 686 1044 l 829 1044 l 499 531 l 836 0 l 685 0 l 422 442 z "},"Y":{"ha":850,"x_min":10,"x_max":840,"o":"m 369 426 l 10 1044 l 153 1044 l 428 531 l 697 1044 l 840 1044 l 486 426 l 486 0 l 369 0 l 369 426 z "},"Z":{"ha":849,"x_min":29,"x_max":819,"o":"m 29 97 l 671 939 l 79 939 l 79 1044 l 819 1044 l 819 947 l 178 106 l 804 106 l 804 0 l 29 0 l 29 97 z "},"[":{"ha":464,"x_min":144,"x_max":408,"o":"m 144 1086 l 408 1086 l 408 997 l 253 997 l 253 -178 l 408 -178 l 408 -267 l 144 -267 l 144 1086 z "},"\\":{"ha":540,"x_min":22,"x_max":518,"o":"m 22 1064 l 111 1064 l 518 -19 l 429 -19 l 22 1064 z "},"]":{"ha":464,"x_min":56,"x_max":319,"o":"m 56 -178 l 211 -178 l 211 997 l 56 997 l 56 1086 l 319 1086 l 319 -267 l 56 -267 l 56 -178 z "},"^":{"ha":833,"x_min":65,"x_max":768,"o":"m 65 413 l 376 1028 l 457 1028 l 768 413 l 679 413 l 417 935 l 154 413 l 65 413 z "},"_":{"ha":694,"x_min":0,"x_max":694,"o":"m 0 -174 l 0 -104 l 694 -104 l 694 -174 l 0 -174 z "},"`":{"ha":308,"x_min":13,"x_max":285,"o":"m 13 1028 l 163 1028 l 285 831 l 193 831 l 13 1028 z "},"a":{"ha":772,"x_min":67,"x_max":672,"o":"m 554 92 l 551 92 q 506 38 533 60 q 447 4 478 17 q 382 -14 415 -8 q 318 -19 349 -19 q 209 -3 256 -19 q 131 42 163 14 q 83 108 99 71 q 67 188 67 146 q 81 273 67 235 q 125 338 94 311 q 206 381 156 365 q 326 400 256 396 q 440 406 385 403 q 554 411 496 408 l 554 464 q 546 526 554 497 q 518 578 538 556 q 464 613 499 600 q 378 625 429 625 q 297 615 329 625 q 243 588 264 606 q 211 547 222 571 q 194 493 200 522 l 88 493 q 180 662 104 610 q 379 714 256 714 q 591 653 519 714 q 663 481 663 593 l 663 136 q 666 67 663 104 q 672 0 669 29 l 554 0 l 554 92 m 554 329 l 371 321 q 233 289 282 317 q 183 193 183 261 q 225 105 183 140 q 342 69 267 69 q 415 80 376 69 q 483 111 453 90 q 534 165 514 132 q 554 243 554 197 l 554 329 z "},"b":{"ha":849,"x_min":104,"x_max":782,"o":"m 665 344 q 647 463 665 413 q 598 545 629 513 q 526 593 567 578 q 440 608 485 608 q 356 592 397 608 q 283 543 315 576 q 232 460 251 510 q 213 342 213 410 q 228 239 213 288 q 274 155 244 190 q 347 99 304 119 q 444 78 390 78 q 540 99 499 78 q 610 157 582 121 q 651 242 638 193 q 665 344 665 290 m 104 1044 l 213 1044 l 213 574 l 215 574 q 244 613 226 590 q 292 656 263 636 q 362 691 321 676 q 461 706 403 706 q 572 685 515 706 q 676 622 629 665 q 752 511 722 579 q 782 347 782 443 q 756 198 782 265 q 686 83 731 131 q 581 8 642 35 q 447 -19 519 -19 q 355 -5 393 -19 q 290 31 317 10 q 245 76 263 51 q 215 121 228 100 l 213 121 l 213 0 l 104 0 l 104 1044 z "},"c":{"ha":772,"x_min":67,"x_max":731,"o":"m 615 463 q 597 508 608 482 q 563 559 585 535 q 509 600 542 583 q 426 617 476 617 q 331 597 375 617 q 253 542 286 578 q 202 456 221 507 q 183 343 183 406 q 197 244 183 292 q 240 159 211 196 q 313 100 268 122 q 421 78 358 78 q 498 92 465 78 q 553 128 531 106 q 592 181 576 151 q 615 239 607 210 l 731 225 q 693 137 717 181 q 632 58 669 93 q 542 2 594 24 q 419 -19 490 -19 q 267 10 333 -19 q 157 90 201 40 q 90 206 113 140 q 67 344 67 272 q 96 500 67 432 q 174 616 125 568 q 287 689 222 664 q 421 714 351 714 q 528 699 478 714 q 620 656 579 685 q 688 581 661 626 q 726 474 715 536 l 615 463 z "},"d":{"ha":849,"x_min":67,"x_max":744,"o":"m 636 342 q 617 460 636 410 q 565 543 597 510 q 492 592 533 576 q 408 608 451 608 q 323 593 364 608 q 251 545 282 578 q 201 463 219 513 q 183 344 183 413 q 197 242 183 290 q 239 157 211 193 q 308 99 267 121 q 404 78 350 78 q 501 99 458 78 q 574 155 544 119 q 620 239 604 190 q 636 342 636 288 m 636 121 l 633 121 q 603 76 621 100 q 559 31 586 51 q 494 -5 532 10 q 401 -19 456 -19 q 268 8 329 -19 q 162 83 207 35 q 92 198 117 131 q 67 347 67 265 q 97 511 67 443 q 173 622 126 579 q 276 685 219 665 q 388 706 333 706 q 487 691 446 706 q 557 656 528 676 q 604 613 586 636 q 633 574 622 590 l 636 574 l 636 1044 l 744 1044 l 744 0 l 636 0 l 636 121 z "},"e":{"ha":772,"x_min":67,"x_max":731,"o":"m 713 196 q 590 39 668 97 q 393 -19 513 -19 q 260 6 319 -19 q 157 78 200 32 q 90 186 114 124 q 67 321 67 249 q 90 481 67 408 q 156 605 113 553 q 260 685 199 657 q 399 714 322 714 q 533 691 472 714 q 638 622 594 668 q 706 509 682 576 q 731 353 731 442 l 731 322 l 183 322 q 201 216 183 261 q 247 140 218 171 q 315 93 276 108 q 399 78 354 78 q 480 91 446 78 q 538 124 514 104 q 578 167 563 143 q 601 213 593 192 l 713 196 m 614 411 q 549 562 603 507 q 401 617 496 617 q 309 598 349 617 q 244 549 269 579 q 203 483 218 519 q 186 411 189 446 l 614 411 z "},"f":{"ha":464,"x_min":43,"x_max":421,"o":"m 172 606 l 43 606 l 43 694 l 172 694 l 172 893 q 186 964 172 935 q 224 1010 200 993 q 277 1036 247 1028 q 339 1044 307 1044 q 384 1044 363 1044 q 421 1040 406 1043 l 421 935 q 390 938 407 938 q 356 939 374 939 q 297 920 314 939 q 281 869 281 901 l 281 694 l 421 694 l 421 606 l 281 606 l 281 0 l 172 0 l 172 606 z "},"g":{"ha":849,"x_min":67,"x_max":744,"o":"m 636 694 l 744 694 l 744 67 q 725 -81 744 -15 q 663 -194 706 -147 q 551 -266 619 -240 q 385 -292 482 -292 q 178 -232 257 -292 q 90 -64 99 -172 l 207 -58 q 219 -103 211 -79 q 248 -147 228 -126 q 301 -181 268 -168 q 388 -194 335 -194 q 510 -172 463 -194 q 587 -109 558 -149 q 626 -17 615 -69 q 636 96 636 36 l 636 153 l 633 153 q 586 81 614 110 q 526 33 558 51 q 457 8 493 15 q 386 0 421 0 q 250 27 310 0 q 150 102 190 54 q 88 215 110 150 q 67 356 67 281 q 93 502 67 436 q 165 615 119 568 q 270 688 210 663 q 399 714 331 714 q 531 678 469 714 q 633 576 593 643 l 636 576 l 636 694 m 636 367 q 622 459 636 414 q 580 539 608 504 q 509 595 551 574 q 408 617 467 617 q 320 601 361 617 q 249 553 279 585 q 201 475 218 522 q 183 365 183 428 q 196 258 183 307 q 235 173 208 208 q 304 117 263 138 q 404 97 346 97 q 487 113 446 97 q 561 163 528 129 q 615 247 594 196 q 636 367 636 297 z "},"h":{"ha":772,"x_min":104,"x_max":668,"o":"m 560 419 q 547 510 560 474 q 513 568 533 546 q 464 599 492 590 q 407 608 436 608 q 334 594 369 608 q 272 551 299 579 q 228 482 244 524 q 213 386 213 440 l 213 0 l 104 0 l 104 1044 l 213 1044 l 213 576 l 215 576 q 306 674 251 643 q 436 706 361 706 q 507 696 467 706 q 583 660 547 686 q 644 587 619 633 q 668 467 668 540 l 668 0 l 560 0 l 560 419 z "},"i":{"ha":308,"x_min":72,"x_max":236,"o":"m 100 694 l 208 694 l 208 0 l 100 0 l 100 694 m 72 963 q 96 1021 72 997 q 154 1044 119 1044 q 213 1021 189 1044 q 236 963 236 997 q 213 904 236 928 q 154 881 189 881 q 96 904 119 881 q 72 963 72 928 z "},"j":{"ha":308,"x_min":-35,"x_max":236,"o":"m -35 -194 l 0 -194 q 76 -172 53 -194 q 100 -83 100 -150 l 100 694 l 208 694 l 208 -90 q 198 -178 208 -140 q 164 -242 188 -217 q 100 -279 140 -267 q 0 -292 60 -292 l -35 -292 l -35 -194 m 72 963 q 96 1021 72 997 q 154 1044 119 1044 q 213 1021 189 1044 q 236 963 236 997 q 213 904 236 928 q 154 881 189 881 q 96 904 119 881 q 72 963 72 928 z "},"k":{"ha":694,"x_min":104,"x_max":678,"o":"m 213 365 l 213 0 l 104 0 l 104 1044 l 213 1044 l 213 388 l 524 694 l 672 694 l 336 378 l 678 0 l 526 0 l 213 365 z "},"l":{"ha":308,"x_min":100,"x_max":208,"o":"m 100 1044 l 208 1044 l 208 0 l 100 0 l 100 1044 z "},"m":{"ha":1158,"x_min":104,"x_max":1054,"o":"m 946 446 q 912 571 946 533 q 796 608 878 608 q 735 595 764 608 q 683 557 706 582 q 647 497 660 532 q 633 419 633 463 l 633 0 l 525 0 l 525 446 q 492 571 525 533 q 379 608 458 608 q 315 595 346 608 q 262 557 285 582 q 226 497 239 532 q 213 419 213 463 l 213 0 l 104 0 l 104 694 l 211 694 l 211 583 l 214 583 q 245 627 228 606 q 287 666 263 649 q 344 694 311 683 q 422 706 376 706 q 503 692 469 706 q 558 657 536 678 q 594 613 581 636 q 614 569 607 589 q 647 624 629 599 q 690 667 665 649 q 749 695 715 685 q 826 706 782 706 q 997 647 939 706 q 1054 475 1054 588 l 1054 0 l 946 0 l 946 446 z "},"n":{"ha":772,"x_min":104,"x_max":668,"o":"m 560 419 q 547 510 560 474 q 513 568 533 546 q 464 599 492 590 q 407 608 436 608 q 334 594 369 608 q 272 551 299 579 q 228 482 244 524 q 213 386 213 440 l 213 0 l 104 0 l 104 694 l 213 694 l 213 576 l 215 576 q 306 674 251 643 q 436 706 361 706 q 507 696 467 706 q 583 660 547 686 q 644 587 619 633 q 668 467 668 540 l 668 0 l 560 0 l 560 419 z "},"o":{"ha":850,"x_min":67,"x_max":783,"o":"m 783 347 q 760 212 783 278 q 692 94 738 146 q 579 12 646 43 q 425 -19 513 -19 q 263 12 331 -19 q 152 94 196 43 q 88 212 108 146 q 67 347 67 278 q 90 483 67 417 q 158 600 113 549 q 271 683 204 651 q 425 714 338 714 q 587 683 519 714 q 698 600 654 651 q 763 483 742 549 q 783 347 783 417 m 183 347 q 200 239 183 289 q 248 153 217 189 q 324 98 279 118 q 425 78 368 78 q 526 98 481 78 q 602 153 571 118 q 650 239 633 189 q 667 347 667 289 q 650 456 667 406 q 602 541 633 506 q 526 597 571 576 q 425 617 481 617 q 324 597 368 617 q 248 541 279 576 q 200 456 217 506 q 183 347 183 406 z "},"p":{"ha":849,"x_min":104,"x_max":782,"o":"m 665 344 q 647 463 665 413 q 598 545 629 513 q 526 593 567 578 q 440 608 485 608 q 356 592 397 608 q 283 543 315 576 q 232 460 251 510 q 213 342 213 410 q 228 239 213 288 q 274 155 244 190 q 347 99 304 119 q 444 78 390 78 q 540 99 499 78 q 610 157 582 121 q 651 242 638 193 q 665 344 665 290 m 104 694 l 213 694 l 213 574 l 215 574 q 244 613 226 590 q 292 656 263 636 q 362 691 321 676 q 461 706 403 706 q 572 685 515 706 q 676 622 629 665 q 752 511 722 579 q 782 347 782 443 q 756 198 782 265 q 686 83 731 131 q 581 8 642 35 q 447 -19 519 -19 q 365 -8 401 -19 q 299 23 328 4 q 249 65 269 42 q 215 113 228 89 l 213 113 l 213 -292 l 104 -292 l 104 694 z "},"q":{"ha":849,"x_min":67,"x_max":744,"o":"m 183 344 q 197 242 183 290 q 239 157 211 193 q 308 99 267 121 q 404 78 350 78 q 501 99 458 78 q 574 155 544 119 q 620 239 604 190 q 636 342 636 288 q 617 460 636 410 q 565 543 597 510 q 492 592 533 576 q 408 608 451 608 q 323 593 364 608 q 251 545 282 578 q 201 463 219 513 q 183 344 183 413 m 636 113 l 633 113 q 600 65 621 89 q 550 23 579 42 q 484 -8 521 4 q 401 -19 447 -19 q 268 8 329 -19 q 162 83 207 35 q 92 198 117 131 q 67 347 67 265 q 97 511 67 443 q 173 622 126 579 q 276 685 219 665 q 388 706 333 706 q 487 691 446 706 q 557 656 528 676 q 604 613 586 636 q 633 574 622 590 l 636 574 l 636 694 l 744 694 l 744 -292 l 636 -292 l 636 113 z "},"r":{"ha":464,"x_min":104,"x_max":451,"o":"m 104 694 l 210 694 l 210 542 l 213 542 q 239 599 222 569 q 279 651 256 628 q 335 690 303 675 q 413 706 368 706 l 451 706 l 451 592 l 417 592 q 261 523 310 592 q 213 331 213 454 l 213 0 l 104 0 l 104 694 z "},"s":{"ha":694,"x_min":53,"x_max":642,"o":"m 518 488 q 506 535 515 511 q 476 576 496 558 q 425 606 457 594 q 347 617 393 617 q 226 588 272 617 q 181 508 181 558 q 223 432 181 458 q 363 390 265 406 q 481 365 429 379 q 569 327 533 350 q 623 272 604 304 q 642 192 642 239 q 626 116 642 154 q 576 48 611 78 q 484 -1 540 18 q 347 -19 428 -19 q 210 -1 264 -19 q 122 49 156 18 q 73 121 89 81 q 53 204 57 161 l 161 204 q 172 160 163 182 q 203 119 182 138 q 258 90 224 101 q 344 78 293 78 q 419 85 385 78 q 480 106 454 92 q 519 140 506 119 q 533 186 533 160 q 524 222 533 207 q 492 250 515 238 q 429 273 469 263 q 324 294 389 283 q 225 317 271 303 q 145 355 179 332 q 92 413 111 378 q 72 497 72 447 q 93 588 72 547 q 151 656 114 628 q 242 699 189 685 q 357 714 294 714 q 465 698 415 714 q 550 652 514 682 q 606 581 586 622 q 626 488 626 539 l 518 488 z "},"t":{"ha":464,"x_min":43,"x_max":421,"o":"m 43 694 l 172 694 l 172 897 l 281 897 l 281 694 l 421 694 l 421 606 l 281 606 l 281 179 q 296 110 281 132 q 347 89 311 89 q 419 93 388 89 l 419 -4 q 310 -8 361 -8 q 249 -1 275 -8 q 206 27 224 7 q 181 81 189 47 q 172 167 172 114 l 172 606 l 43 606 l 43 694 z "},"u":{"ha":772,"x_min":104,"x_max":668,"o":"m 560 110 l 557 110 q 466 12 521 43 q 336 -19 411 -19 q 258 -8 299 -19 q 183 32 217 3 q 126 110 149 61 q 104 238 104 160 l 104 694 l 213 694 l 213 267 q 226 176 213 213 q 260 118 239 140 q 308 87 281 96 q 365 78 336 78 q 438 92 403 78 q 501 135 474 107 q 544 204 528 163 q 560 300 560 246 l 560 694 l 668 694 l 668 0 l 560 0 l 560 110 z "},"v":{"ha":694,"x_min":11,"x_max":683,"o":"m 11 694 l 133 694 l 346 156 l 349 156 l 567 694 l 683 694 l 394 0 l 296 0 l 11 694 z "},"w":{"ha":1081,"x_min":22,"x_max":1058,"o":"m 22 694 l 142 694 l 314 164 l 317 164 l 489 694 l 592 694 l 768 164 l 771 164 l 943 694 l 1058 694 l 819 0 l 713 0 l 542 531 l 539 531 l 369 0 l 264 0 l 22 694 z "},"x":{"ha":694,"x_min":11,"x_max":683,"o":"m 278 358 l 28 694 l 172 694 l 356 417 l 539 694 l 675 694 l 419 358 l 683 0 l 542 0 l 350 286 l 146 0 l 11 0 l 278 358 z "},"y":{"ha":694,"x_min":11,"x_max":683,"o":"m 293 14 l 11 694 l 135 694 l 347 119 l 350 119 l 564 694 l 683 694 l 278 -292 l 160 -292 l 293 14 z "},"z":{"ha":617,"x_min":39,"x_max":578,"o":"m 39 94 l 443 597 l 53 597 l 53 694 l 578 694 l 578 600 l 174 97 l 578 97 l 578 0 l 39 0 l 39 94 z "},"{":{"ha":464,"x_min":97,"x_max":408,"o":"m 97 450 q 169 490 144 450 q 194 633 194 531 l 194 942 q 231 1047 194 1007 q 351 1086 268 1086 l 408 1086 l 408 1006 l 379 1006 q 319 985 336 1006 q 303 925 303 964 l 303 625 q 274 481 303 531 q 197 411 246 432 l 197 408 q 274 338 246 388 q 303 194 303 289 l 303 -106 q 319 -165 303 -144 q 379 -186 336 -186 l 408 -186 l 408 -267 l 351 -267 q 231 -227 268 -267 q 194 -122 194 -187 l 194 186 q 169 329 194 289 q 97 369 144 369 l 97 450 z "},"|":{"ha":308,"x_min":114,"x_max":194,"o":"m 114 1064 l 194 1064 l 194 -19 l 114 -19 l 114 1064 z "},"}":{"ha":464,"x_min":56,"x_max":367,"o":"m 56 -186 l 85 -186 q 144 -165 128 -186 q 161 -106 161 -144 l 161 194 q 190 338 161 289 q 267 408 218 388 l 267 411 q 190 481 218 432 q 161 625 161 531 l 161 925 q 144 985 161 964 q 85 1006 128 1006 l 56 1006 l 56 1086 l 113 1086 q 233 1047 196 1086 q 269 942 269 1007 l 269 633 q 294 490 269 531 q 367 450 319 450 l 367 369 q 294 329 319 369 q 269 186 269 289 l 269 -122 q 233 -227 269 -187 q 113 -267 196 -267 l 56 -267 l 56 -186 z "},"~":{"ha":833,"x_min":96,"x_max":738,"o":"m 96 318 q 123 362 107 340 q 160 400 139 383 q 208 427 181 417 q 269 438 235 438 q 348 424 311 438 q 429 392 385 411 q 504 360 469 375 q 565 346 539 346 q 635 376 607 346 q 688 443 664 407 l 738 385 q 710 341 726 363 q 674 303 694 319 q 626 276 653 286 q 564 265 599 265 q 485 278 522 265 q 404 311 449 292 q 329 342 364 328 q 268 357 294 357 q 198 326 226 357 q 146 260 169 296 l 96 318 z "}," ":{"ha":386,"x_min":0,"x_max":0,"o":""},"¡":{"ha":464,"x_min":154,"x_max":310,"o":"m 178 515 l 286 515 l 286 -292 l 178 -292 l 178 515 m 154 692 q 177 747 154 724 q 232 769 200 769 q 287 747 264 769 q 310 692 310 724 q 287 637 310 660 q 232 614 264 614 q 177 637 200 614 q 154 692 154 660 z "},"¢":{"ha":772,"x_min":54,"x_max":718,"o":"m 363 611 q 225 524 279 594 q 171 343 171 454 q 182 252 171 296 q 217 173 193 208 q 276 114 240 138 q 363 82 313 90 l 363 611 m 363 -17 q 228 24 286 -8 q 132 105 171 56 q 74 216 93 154 q 54 344 54 278 q 79 490 54 425 q 146 601 104 554 q 244 675 188 647 q 363 710 300 703 l 363 806 l 426 806 l 426 714 q 528 696 481 711 q 615 651 576 681 q 678 577 653 621 q 714 474 704 533 l 603 463 q 585 507 596 482 q 554 556 574 532 q 503 597 535 579 q 426 617 472 614 l 426 81 q 496 98 467 83 q 546 134 525 113 q 581 183 567 156 q 603 239 594 211 l 718 225 q 683 140 706 182 q 625 63 660 97 q 541 8 590 29 q 426 -17 492 -14 l 426 -171 l 363 -171 l 363 -17 z "},"£":{"ha":772,"x_min":49,"x_max":724,"o":"m 53 558 l 169 558 q 117 671 129 617 q 104 765 104 725 q 127 875 104 824 q 190 964 150 926 q 284 1023 229 1001 q 401 1044 339 1044 q 547 1019 489 1044 q 638 956 604 994 q 686 870 672 918 q 703 776 700 822 l 586 768 q 533 902 581 857 q 408 947 486 947 q 277 898 325 947 q 229 764 229 849 q 233 724 229 744 q 244 681 236 704 q 264 627 251 657 q 296 558 276 597 l 589 558 l 589 486 l 324 486 q 335 433 331 460 q 340 376 340 406 q 328 294 340 332 q 297 225 317 257 q 251 166 276 193 q 200 114 226 139 l 203 111 q 246 125 222 118 q 321 132 269 132 q 382 126 353 132 q 447 110 411 119 q 502 96 475 103 q 560 89 529 89 q 631 101 594 89 q 689 133 667 114 l 724 29 q 663 0 704 17 q 551 -17 621 -17 q 478 -8 514 -17 q 417 7 442 0 q 378 17 400 13 q 333 26 356 22 q 291 33 311 31 q 257 35 271 35 q 158 17 201 35 q 93 -19 114 0 l 49 76 q 128 128 93 96 q 185 197 163 160 q 220 273 208 233 q 232 347 232 313 q 224 425 232 392 q 206 486 217 458 l 53 486 l 53 558 z "},"¥":{"ha":772,"x_min":10,"x_max":763,"o":"m 332 229 l 128 229 l 128 310 l 332 310 l 332 415 l 328 422 l 128 422 l 128 503 l 286 503 l 10 1028 l 149 1028 l 386 522 l 624 1028 l 763 1028 l 486 503 l 644 503 l 644 422 l 444 422 l 440 415 l 440 310 l 644 310 l 644 229 l 440 229 l 440 0 l 332 0 l 332 229 z "},"§":{"ha":772,"x_min":85,"x_max":688,"o":"m 543 824 q 497 935 536 903 q 389 967 457 967 q 315 952 344 967 q 266 915 285 938 q 240 868 247 893 q 232 821 232 843 q 251 742 232 772 q 303 692 271 711 q 376 660 335 672 q 460 637 417 649 q 544 609 503 625 q 617 566 585 593 q 668 497 649 539 q 688 392 688 456 q 672 308 688 347 q 633 238 657 268 q 577 187 608 207 q 513 163 546 167 l 513 160 q 630 81 593 138 q 667 -44 667 24 q 647 -153 667 -104 q 589 -237 626 -203 q 499 -292 551 -272 q 385 -311 447 -311 q 257 -292 308 -311 q 173 -240 206 -274 q 125 -162 140 -207 q 106 -68 110 -118 l 222 -68 q 236 -133 222 -106 q 272 -178 250 -161 q 320 -205 293 -196 q 375 -214 347 -214 q 506 -171 463 -214 q 550 -62 550 -128 q 530 17 550 -12 q 477 66 510 47 q 403 96 444 85 q 317 118 361 107 q 232 145 274 129 q 158 190 190 161 q 105 263 125 218 q 85 376 85 307 q 131 522 85 461 q 258 603 178 582 l 258 606 q 151 683 186 626 q 115 821 115 739 q 134 913 115 869 q 188 990 153 957 q 275 1044 224 1024 q 392 1064 326 1064 q 584 1000 513 1064 q 660 824 656 936 l 543 824 m 571 386 q 522 499 571 453 q 381 544 472 544 q 302 531 336 544 q 246 496 268 518 q 213 444 224 474 q 201 382 201 414 q 212 322 201 351 q 244 270 222 293 q 302 233 267 247 q 386 218 338 218 q 521 265 471 218 q 571 386 571 311 z "},"¨":{"ha":308,"x_min":-67,"x_max":375,"o":"m 219 917 q 242 972 219 949 q 297 994 265 994 q 352 972 329 994 q 375 917 375 949 q 352 862 375 885 q 297 839 329 839 q 242 862 265 839 q 219 917 219 885 m -67 917 q -44 972 -67 949 q 11 994 -21 994 q 66 972 43 994 q 89 917 89 949 q 66 862 89 885 q 11 839 43 839 q -44 862 -21 839 q -67 917 -67 885 z "},"©":{"ha":1111,"x_min":14,"x_max":1097,"o":"m 844 415 q 749 248 822 311 q 574 185 676 185 q 438 211 499 185 q 334 283 376 238 q 269 391 292 329 q 246 525 246 453 q 267 660 246 599 q 331 767 289 722 q 433 838 372 813 q 569 864 493 864 q 669 849 622 864 q 752 806 715 835 q 813 734 789 776 q 844 638 838 692 l 760 638 q 697 747 746 701 q 571 792 647 792 q 465 772 510 792 q 388 717 419 753 q 342 633 357 682 q 326 526 326 585 q 342 417 326 467 q 390 331 358 367 q 467 276 421 296 q 574 257 513 257 q 699 303 649 257 q 760 415 749 349 l 844 415 m 14 522 q 56 733 14 635 q 172 906 99 832 q 344 1022 246 979 q 556 1064 443 1064 q 767 1022 668 1064 q 939 906 865 979 q 1055 733 1013 832 q 1097 522 1097 635 q 1055 311 1097 410 q 939 139 1013 213 q 767 23 865 65 q 556 -19 668 -19 q 344 23 443 -19 q 172 139 246 65 q 56 311 99 213 q 14 522 14 410 m 1017 522 q 981 710 1017 624 q 884 858 946 796 q 738 956 822 921 q 556 992 653 992 q 373 956 457 992 q 227 858 289 921 q 130 710 165 796 q 94 522 94 624 q 130 335 94 421 q 227 186 165 249 q 373 88 289 124 q 556 53 457 53 q 738 88 653 53 q 884 186 822 124 q 981 335 946 249 q 1017 522 1017 421 z "},"ª":{"ha":501,"x_min":50,"x_max":451,"o":"m 443 707 q 446 663 443 683 q 451 624 449 643 l 367 624 l 367 679 l 364 679 q 296 626 340 639 q 207 613 251 613 q 147 622 175 613 q 97 647 119 631 q 63 686 75 663 q 50 739 50 710 q 88 831 50 797 q 218 868 125 865 l 363 874 l 363 910 q 339 978 363 949 q 251 1008 315 1008 q 164 985 189 1008 q 132 929 139 963 l 51 929 q 115 1032 63 1000 q 253 1064 168 1064 q 397 1027 350 1064 q 443 921 443 990 l 443 707 m 363 826 l 226 821 q 192 817 210 821 q 162 804 175 813 q 140 782 149 796 q 131 747 131 768 q 160 688 131 707 q 232 668 189 668 q 278 674 254 668 q 320 694 301 681 q 351 726 339 707 q 363 774 363 746 l 363 826 z "},"«":{"ha":772,"x_min":140,"x_max":632,"o":"m 382 367 l 535 617 l 632 617 l 476 367 l 628 111 l 531 111 l 382 367 m 140 367 l 293 617 l 390 617 l 235 367 l 386 111 l 289 111 l 140 367 z "},"¬":{"ha":833,"x_min":65,"x_max":768,"o":"m 688 449 l 65 449 l 65 529 l 768 529 l 768 150 l 688 150 l 688 449 z "},"®":{"ha":1111,"x_min":14,"x_max":1097,"o":"m 557 478 l 425 478 l 425 204 l 344 204 l 344 844 l 596 844 q 763 800 708 844 q 817 664 817 756 q 803 587 817 619 q 765 531 789 554 q 711 496 742 508 q 649 479 681 483 l 829 204 l 732 204 l 557 478 m 567 550 q 638 554 607 550 q 692 570 669 558 q 725 603 714 582 q 736 658 736 624 q 726 715 736 693 q 698 750 717 738 q 653 767 679 763 q 593 772 626 772 l 425 772 l 425 550 l 567 550 m 14 522 q 56 733 14 635 q 172 906 99 832 q 344 1022 246 979 q 556 1064 443 1064 q 767 1022 668 1064 q 939 906 865 979 q 1055 733 1013 832 q 1097 522 1097 635 q 1055 311 1097 410 q 939 139 1013 213 q 767 23 865 65 q 556 -19 668 -19 q 344 23 443 -19 q 172 139 246 65 q 56 311 99 213 q 14 522 14 410 m 1017 522 q 981 710 1017 624 q 884 858 946 796 q 738 956 822 921 q 556 992 653 992 q 373 956 457 992 q 227 858 289 921 q 130 710 165 796 q 94 522 94 624 q 130 335 94 421 q 227 186 165 249 q 373 88 289 124 q 556 53 457 53 q 738 88 653 53 q 884 186 822 124 q 981 335 946 249 q 1017 522 1017 421 z "},"¯":{"ha":308,"x_min":-36,"x_max":344,"o":"m -36 960 l 344 960 l 344 879 l -36 879 l -36 960 z "},"°":{"ha":556,"x_min":78,"x_max":478,"o":"m 78 844 q 93 922 78 886 q 135 985 108 958 q 199 1028 163 1013 q 278 1044 236 1044 q 356 1028 319 1044 q 419 985 392 1013 q 462 922 446 958 q 478 844 478 886 q 462 766 478 803 q 419 702 446 729 q 356 660 392 675 q 278 644 319 644 q 199 660 236 644 q 135 702 163 675 q 93 766 108 729 q 78 844 78 803 m 414 844 q 403 896 414 871 q 373 940 392 921 q 329 969 354 958 q 278 981 304 981 q 226 969 251 981 q 183 940 201 958 q 153 896 164 921 q 142 844 142 871 q 153 793 142 818 q 183 749 164 768 q 226 719 201 731 q 278 708 251 708 q 329 719 304 708 q 373 749 354 731 q 403 793 392 768 q 414 844 414 818 z "},"±":{"ha":833,"x_min":65,"x_max":768,"o":"m 376 703 l 457 703 l 457 458 l 768 458 l 768 378 l 457 378 l 457 135 l 376 135 l 376 378 l 65 378 l 65 458 l 376 458 l 376 703 m 65 81 l 768 81 l 768 0 l 65 0 l 65 81 z "},"´":{"ha":308,"x_min":24,"x_max":296,"o":"m 146 1028 l 296 1028 l 115 831 l 24 831 l 146 1028 z "},"µ":{"ha":772,"x_min":104,"x_max":668,"o":"m 560 110 l 557 110 q 466 12 521 43 q 336 -19 411 -19 q 265 -6 293 -19 q 213 36 236 8 l 213 -292 l 104 -292 l 104 694 l 213 694 l 213 267 q 226 176 213 213 q 260 118 239 140 q 308 87 281 96 q 365 78 336 78 q 438 92 403 78 q 501 135 474 107 q 544 204 528 163 q 560 300 560 246 l 560 694 l 668 694 l 668 0 l 560 0 l 560 110 z "},"¶":{"ha":833,"x_min":79,"x_max":708,"o":"m 608 972 l 469 972 l 469 -292 l 369 -292 l 369 514 q 253 533 307 514 q 161 585 200 551 q 101 668 122 619 q 79 775 79 717 q 101 892 79 842 q 163 976 124 943 q 259 1027 203 1010 q 383 1044 315 1044 l 708 1044 l 708 -292 l 608 -292 l 608 972 z "},"·":{"ha":386,"x_min":111,"x_max":275,"o":"m 111 454 q 135 513 111 489 q 193 536 158 536 q 251 513 228 536 q 275 454 275 489 q 251 396 275 419 q 193 372 228 372 q 135 396 158 372 q 111 454 111 419 z "},"¸":{"ha":308,"x_min":6,"x_max":303,"o":"m 53 -121 l 140 0 l 207 0 l 143 -86 l 146 -86 q 199 -79 164 -79 q 273 -110 243 -79 q 303 -181 303 -140 q 288 -240 303 -215 q 248 -281 272 -265 q 194 -303 224 -296 q 133 -311 164 -311 q 58 -299 92 -311 q 6 -281 25 -287 l 28 -221 q 68 -240 44 -232 q 118 -247 92 -247 q 172 -235 150 -247 q 194 -193 194 -224 q 174 -146 194 -157 q 133 -135 154 -135 q 76 -150 101 -135 l 53 -121 z "},"º":{"ha":553,"x_min":43,"x_max":510,"o":"m 276 1064 q 382 1045 338 1064 q 455 995 426 1026 q 497 923 483 964 q 510 839 510 882 q 494 754 510 794 q 450 682 479 714 q 377 631 421 650 q 276 613 333 613 q 171 631 215 613 q 98 682 126 650 q 56 754 69 714 q 43 839 43 794 q 58 923 43 882 q 103 995 74 964 q 176 1045 132 1026 q 276 1064 219 1064 m 276 1000 q 165 955 206 1000 q 124 839 124 910 q 165 722 124 768 q 276 676 206 676 q 388 722 347 676 q 429 839 429 768 q 388 955 429 910 q 276 1000 347 1000 z "},"»":{"ha":772,"x_min":140,"x_max":632,"o":"m 296 361 l 144 617 l 242 617 l 390 361 l 238 111 l 140 111 l 296 361 m 538 361 l 386 617 l 483 617 l 632 361 l 479 111 l 382 111 l 538 361 z "},"¿":{"ha":772,"x_min":111,"x_max":661,"o":"m 490 444 q 485 365 490 403 q 467 294 481 328 q 429 228 454 260 q 364 165 404 196 q 302 114 328 138 q 260 65 276 90 q 235 11 243 40 q 228 -56 228 -18 q 269 -168 228 -122 q 386 -214 310 -214 q 513 -160 472 -214 q 553 -19 553 -106 l 661 -19 q 650 -114 661 -62 q 609 -209 639 -165 q 525 -282 579 -253 q 383 -311 471 -311 q 278 -295 328 -311 q 192 -247 229 -279 q 133 -166 154 -215 q 111 -50 111 -117 q 123 38 111 0 q 157 106 135 75 q 210 165 179 138 q 282 225 242 193 q 335 278 315 251 q 365 331 354 306 q 378 381 375 357 q 382 425 382 404 l 382 515 l 490 515 l 490 444 m 358 692 q 381 747 358 724 q 436 769 404 769 q 491 747 468 769 q 514 692 514 724 q 491 637 514 660 q 436 614 468 614 q 381 637 404 614 q 358 692 358 660 z "},"À":{"ha":928,"x_min":11,"x_max":917,"o":"m 465 897 l 463 897 l 286 400 l 642 400 l 465 897 m 404 1044 l 524 1044 l 917 0 l 785 0 l 681 294 l 247 294 l 143 0 l 11 0 l 404 1044 m 260 1294 l 410 1294 l 532 1097 l 440 1097 l 260 1294 z "},"Á":{"ha":928,"x_min":11,"x_max":917,"o":"m 465 897 l 463 897 l 286 400 l 642 400 l 465 897 m 404 1044 l 524 1044 l 917 0 l 785 0 l 681 294 l 247 294 l 143 0 l 11 0 l 404 1044 m 504 1294 l 654 1294 l 474 1097 l 382 1097 l 504 1294 z "},"Â":{"ha":928,"x_min":11,"x_max":917,"o":"m 465 897 l 463 897 l 286 400 l 642 400 l 465 897 m 404 1044 l 524 1044 l 917 0 l 785 0 l 681 294 l 247 294 l 143 0 l 11 0 l 404 1044 m 463 1226 l 371 1097 l 261 1097 l 399 1294 l 526 1294 l 667 1097 l 554 1097 l 463 1226 z "},"Ã":{"ha":928,"x_min":11,"x_max":917,"o":"m 465 897 l 463 897 l 286 400 l 642 400 l 465 897 m 404 1044 l 524 1044 l 917 0 l 785 0 l 681 294 l 247 294 l 143 0 l 11 0 l 404 1044 m 228 1108 q 271 1219 236 1178 q 372 1261 306 1261 q 428 1254 401 1261 q 479 1238 454 1247 q 526 1218 503 1228 q 568 1208 549 1208 q 615 1231 601 1208 q 629 1272 628 1253 l 700 1272 q 657 1161 692 1203 q 556 1119 622 1119 q 500 1126 526 1119 q 449 1143 474 1133 q 402 1163 425 1153 q 360 1172 379 1172 q 313 1150 326 1172 q 299 1108 300 1128 l 228 1108 z "},"Ä":{"ha":928,"x_min":11,"x_max":917,"o":"m 465 897 l 463 897 l 286 400 l 642 400 l 465 897 m 404 1044 l 524 1044 l 917 0 l 785 0 l 681 294 l 247 294 l 143 0 l 11 0 l 404 1044 m 529 1183 q 552 1238 529 1215 q 607 1261 575 1261 q 662 1238 639 1261 q 685 1183 685 1215 q 662 1128 685 1151 q 607 1106 639 1106 q 552 1128 575 1106 q 529 1183 529 1151 m 243 1183 q 266 1238 243 1215 q 321 1261 289 1261 q 376 1238 353 1261 q 399 1183 399 1215 q 376 1128 399 1151 q 321 1106 353 1106 q 266 1128 289 1106 q 243 1183 243 1151 z "},"Å":{"ha":928,"x_min":11,"x_max":917,"o":"m 465 897 l 463 897 l 286 400 l 642 400 l 465 897 m 404 1044 l 524 1044 l 917 0 l 785 0 l 681 294 l 247 294 l 143 0 l 11 0 l 404 1044 m 322 1217 q 333 1272 322 1246 q 364 1317 344 1297 q 409 1347 383 1336 q 464 1358 435 1358 q 519 1347 493 1358 q 564 1317 544 1336 q 594 1272 583 1297 q 606 1217 606 1246 q 594 1162 606 1188 q 564 1117 583 1136 q 519 1086 544 1097 q 464 1075 493 1075 q 409 1086 435 1075 q 364 1117 383 1097 q 333 1162 344 1136 q 322 1217 322 1188 m 550 1217 q 525 1278 550 1253 q 464 1303 500 1303 q 403 1278 428 1303 q 378 1217 378 1253 q 403 1156 378 1181 q 464 1131 428 1131 q 525 1156 500 1131 q 550 1217 550 1181 z "},"Æ":{"ha":1311,"x_min":-1,"x_max":1226,"o":"m 663 258 l 274 258 l 133 0 l -1 0 l 592 1044 l 1226 1044 l 1226 939 l 779 939 l 779 589 l 1213 589 l 1213 483 l 779 483 l 779 106 l 1226 106 l 1226 0 l 663 0 l 663 258 m 663 972 l 660 972 l 331 364 l 663 364 l 663 972 z "},"Ç":{"ha":1157,"x_min":88,"x_max":1090,"o":"m 964 706 q 910 824 944 775 q 831 902 875 872 q 732 945 786 932 q 618 958 678 958 q 433 920 510 958 q 306 819 356 882 q 235 679 257 757 q 213 522 213 601 q 233 367 213 444 q 301 226 254 289 q 426 125 349 164 q 618 86 504 86 q 851 165 765 86 q 971 375 938 243 l 1090 361 q 1043 232 1074 297 q 960 113 1013 167 q 831 24 908 60 q 646 -18 754 -12 l 596 -86 l 599 -86 q 651 -79 617 -79 q 726 -110 696 -79 q 756 -181 756 -140 q 740 -240 756 -215 q 701 -281 725 -265 q 647 -303 676 -296 q 586 -311 617 -311 q 511 -299 544 -311 q 458 -281 478 -287 l 481 -221 q 521 -240 497 -232 q 571 -247 544 -247 q 625 -235 603 -247 q 647 -193 647 -224 q 627 -146 647 -157 q 586 -135 607 -135 q 529 -150 554 -135 l 506 -121 l 579 -18 q 381 25 471 -14 q 225 134 290 64 q 124 302 160 204 q 88 522 88 400 q 128 740 88 640 q 240 911 168 839 q 408 1024 311 983 q 618 1064 506 1064 q 827 1029 743 1064 q 964 942 911 994 q 1044 829 1017 890 q 1082 714 1071 768 l 964 706 z "},"È":{"ha":772,"x_min":118,"x_max":707,"o":"m 118 1044 l 707 1044 l 707 939 l 235 939 l 235 589 l 693 589 l 693 483 l 235 483 l 235 106 l 707 106 l 707 0 l 118 0 l 118 1044 m 231 1294 l 381 1294 l 503 1097 l 411 1097 l 231 1294 z "},"É":{"ha":772,"x_min":118,"x_max":707,"o":"m 118 1044 l 707 1044 l 707 939 l 235 939 l 235 589 l 693 589 l 693 483 l 235 483 l 235 106 l 707 106 l 707 0 l 118 0 l 118 1044 m 454 1294 l 604 1294 l 424 1097 l 332 1097 l 454 1294 z "},"Ê":{"ha":772,"x_min":118,"x_max":707,"o":"m 118 1044 l 707 1044 l 707 939 l 235 939 l 235 589 l 693 589 l 693 483 l 235 483 l 235 106 l 707 106 l 707 0 l 118 0 l 118 1044 m 385 1226 l 293 1097 l 183 1097 l 321 1294 l 449 1294 l 589 1097 l 476 1097 l 385 1226 z "},"Ë":{"ha":772,"x_min":118,"x_max":707,"o":"m 118 1044 l 707 1044 l 707 939 l 235 939 l 235 589 l 693 589 l 693 483 l 235 483 l 235 106 l 707 106 l 707 0 l 118 0 l 118 1044 m 451 1183 q 474 1238 451 1215 q 529 1261 497 1261 q 584 1238 561 1261 q 607 1183 607 1215 q 584 1128 607 1151 q 529 1106 561 1106 q 474 1128 497 1106 q 451 1183 451 1151 m 165 1183 q 188 1238 165 1215 q 243 1261 211 1261 q 298 1238 275 1261 q 321 1183 321 1215 q 298 1128 321 1151 q 243 1106 275 1106 q 188 1128 211 1106 q 165 1183 165 1151 z "},"Ì":{"ha":386,"x_min":51,"x_max":324,"o":"m 135 1044 l 251 1044 l 251 0 l 135 0 l 135 1044 m 51 1294 l 201 1294 l 324 1097 l 232 1097 l 51 1294 z "},"Í":{"ha":386,"x_min":97,"x_max":369,"o":"m 135 1044 l 251 1044 l 251 0 l 135 0 l 135 1044 m 219 1294 l 369 1294 l 189 1097 l 97 1097 l 219 1294 z "},"Î":{"ha":386,"x_min":-10,"x_max":396,"o":"m 135 1044 l 251 1044 l 251 0 l 135 0 l 135 1044 m 192 1226 l 100 1097 l -10 1097 l 128 1294 l 256 1294 l 396 1097 l 283 1097 l 192 1226 z "},"Ï":{"ha":386,"x_min":-62,"x_max":379,"o":"m 135 1044 l 251 1044 l 251 0 l 135 0 l 135 1044 m 224 1183 q 247 1238 224 1215 q 301 1261 269 1261 q 356 1238 333 1261 q 379 1183 379 1215 q 356 1128 379 1151 q 301 1106 333 1106 q 247 1128 269 1106 q 224 1183 224 1151 m -62 1183 q -40 1238 -62 1215 q 15 1261 -17 1261 q 70 1238 47 1261 q 93 1183 93 1215 q 70 1128 93 1151 q 15 1106 47 1106 q -40 1128 -17 1106 q -62 1183 -62 1151 z "},"Ñ":{"ha":1081,"x_min":124,"x_max":957,"o":"m 124 1044 l 250 1044 l 838 183 l 840 183 l 840 1044 l 957 1044 l 957 0 l 831 0 l 243 861 l 240 861 l 240 0 l 124 0 l 124 1044 m 304 1108 q 347 1219 313 1178 q 449 1261 382 1261 q 504 1254 478 1261 q 556 1238 531 1247 q 602 1218 579 1228 q 644 1208 625 1208 q 691 1231 678 1208 q 706 1272 704 1253 l 776 1272 q 733 1161 768 1203 q 632 1119 699 1119 q 576 1126 603 1119 q 525 1143 550 1133 q 478 1163 501 1153 q 436 1172 456 1172 q 390 1150 403 1172 q 375 1108 376 1128 l 304 1108 z "},"Ò":{"ha":1236,"x_min":88,"x_max":1149,"o":"m 1024 522 q 1001 679 1024 601 q 930 819 979 757 q 803 920 881 882 q 618 958 726 958 q 433 920 510 958 q 306 819 356 882 q 235 679 257 757 q 213 522 213 601 q 235 381 213 457 q 306 240 257 306 q 431 130 354 174 q 618 86 508 86 q 805 130 728 86 q 931 240 882 174 q 1001 381 979 306 q 1024 522 1024 457 m 88 522 q 128 740 88 640 q 240 911 168 839 q 408 1024 311 983 q 618 1064 506 1064 q 831 1026 733 1064 q 999 919 928 989 q 1109 748 1069 849 q 1149 522 1149 647 q 1108 305 1149 404 q 997 133 1068 206 q 828 21 925 61 q 618 -19 731 -19 q 406 18 503 -19 q 238 126 308 56 q 127 297 167 196 q 88 522 88 397 m 428 1294 l 578 1294 l 700 1097 l 608 1097 l 428 1294 z "},"Ó":{"ha":1236,"x_min":88,"x_max":1149,"o":"m 1024 522 q 1001 679 1024 601 q 930 819 979 757 q 803 920 881 882 q 618 958 726 958 q 433 920 510 958 q 306 819 356 882 q 235 679 257 757 q 213 522 213 601 q 235 381 213 457 q 306 240 257 306 q 431 130 354 174 q 618 86 508 86 q 805 130 728 86 q 931 240 882 174 q 1001 381 979 306 q 1024 522 1024 457 m 88 522 q 128 740 88 640 q 240 911 168 839 q 408 1024 311 983 q 618 1064 506 1064 q 831 1026 733 1064 q 999 919 928 989 q 1109 748 1069 849 q 1149 522 1149 647 q 1108 305 1149 404 q 997 133 1068 206 q 828 21 925 61 q 618 -19 731 -19 q 406 18 503 -19 q 238 126 308 56 q 127 297 167 196 q 88 522 88 397 m 658 1294 l 808 1294 l 628 1097 l 536 1097 l 658 1294 z "},"Ô":{"ha":1236,"x_min":88,"x_max":1149,"o":"m 1024 522 q 1001 679 1024 601 q 930 819 979 757 q 803 920 881 882 q 618 958 726 958 q 433 920 510 958 q 306 819 356 882 q 235 679 257 757 q 213 522 213 601 q 235 381 213 457 q 306 240 257 306 q 431 130 354 174 q 618 86 508 86 q 805 130 728 86 q 931 240 882 174 q 1001 381 979 306 q 1024 522 1024 457 m 88 522 q 128 740 88 640 q 240 911 168 839 q 408 1024 311 983 q 618 1064 506 1064 q 831 1026 733 1064 q 999 919 928 989 q 1109 748 1069 849 q 1149 522 1149 647 q 1108 305 1149 404 q 997 133 1068 206 q 828 21 925 61 q 618 -19 731 -19 q 406 18 503 -19 q 238 126 308 56 q 127 297 167 196 q 88 522 88 397 m 617 1226 l 525 1097 l 415 1097 l 553 1294 l 681 1294 l 821 1097 l 708 1097 l 617 1226 z "},"Õ":{"ha":1236,"x_min":88,"x_max":1149,"o":"m 1024 522 q 1001 679 1024 601 q 930 819 979 757 q 803 920 881 882 q 618 958 726 958 q 433 920 510 958 q 306 819 356 882 q 235 679 257 757 q 213 522 213 601 q 235 381 213 457 q 306 240 257 306 q 431 130 354 174 q 618 86 508 86 q 805 130 728 86 q 931 240 882 174 q 1001 381 979 306 q 1024 522 1024 457 m 88 522 q 128 740 88 640 q 240 911 168 839 q 408 1024 311 983 q 618 1064 506 1064 q 831 1026 733 1064 q 999 919 928 989 q 1109 748 1069 849 q 1149 522 1149 647 q 1108 305 1149 404 q 997 133 1068 206 q 828 21 925 61 q 618 -19 731 -19 q 406 18 503 -19 q 238 126 308 56 q 127 297 167 196 q 88 522 88 397 m 382 1108 q 425 1219 390 1178 q 526 1261 460 1261 q 582 1254 556 1261 q 633 1238 608 1247 q 680 1218 657 1228 q 722 1208 703 1208 q 769 1231 756 1208 q 783 1272 782 1253 l 854 1272 q 811 1161 846 1203 q 710 1119 776 1119 q 654 1126 681 1119 q 603 1143 628 1133 q 556 1163 579 1153 q 514 1172 533 1172 q 467 1150 481 1172 q 453 1108 454 1128 l 382 1108 z "},"Ö":{"ha":1236,"x_min":88,"x_max":1149,"o":"m 1024 522 q 1001 679 1024 601 q 930 819 979 757 q 803 920 881 882 q 618 958 726 958 q 433 920 510 958 q 306 819 356 882 q 235 679 257 757 q 213 522 213 601 q 235 381 213 457 q 306 240 257 306 q 431 130 354 174 q 618 86 508 86 q 805 130 728 86 q 931 240 882 174 q 1001 381 979 306 q 1024 522 1024 457 m 88 522 q 128 740 88 640 q 240 911 168 839 q 408 1024 311 983 q 618 1064 506 1064 q 831 1026 733 1064 q 999 919 928 989 q 1109 748 1069 849 q 1149 522 1149 647 q 1108 305 1149 404 q 997 133 1068 206 q 828 21 925 61 q 618 -19 731 -19 q 406 18 503 -19 q 238 126 308 56 q 127 297 167 196 q 88 522 88 397 m 683 1183 q 706 1238 683 1215 q 761 1261 729 1261 q 816 1238 793 1261 q 839 1183 839 1215 q 816 1128 839 1151 q 761 1106 793 1106 q 706 1128 729 1106 q 683 1183 683 1151 m 397 1183 q 420 1238 397 1215 q 475 1261 443 1261 q 530 1238 507 1261 q 553 1183 553 1215 q 530 1128 553 1151 q 475 1106 507 1106 q 420 1128 443 1106 q 397 1183 397 1151 z "},"Ø":{"ha":1236,"x_min":85,"x_max":1151,"o":"m 900 851 q 782 929 851 900 q 618 958 713 958 q 433 920 510 958 q 306 819 356 882 q 235 679 257 757 q 213 522 213 601 q 233 385 213 458 q 300 249 254 313 l 900 851 m 342 199 q 458 117 390 149 q 618 86 526 86 q 805 130 728 86 q 931 240 882 174 q 1001 381 979 306 q 1024 522 1024 457 q 1004 670 1024 597 q 943 801 985 743 l 342 199 m 210 158 q 119 318 151 226 q 88 522 88 410 q 128 740 88 640 q 240 911 168 839 q 408 1024 311 983 q 618 1064 506 1064 q 820 1031 728 1064 q 982 933 913 997 l 1106 1058 l 1151 1011 l 1028 886 q 1117 725 1086 815 q 1149 522 1149 635 q 1108 305 1149 404 q 997 133 1068 206 q 828 21 925 61 q 618 -19 731 -19 q 416 14 508 -19 q 254 111 324 47 l 131 -14 l 85 33 l 210 158 z "},"Ù":{"ha":1003,"x_min":118,"x_max":885,"o":"m 118 1044 l 235 1044 l 235 364 q 254 240 235 293 q 308 153 274 188 q 392 103 343 119 q 501 86 442 86 q 604 103 556 86 q 690 157 653 121 q 747 251 726 193 q 768 388 768 308 l 768 1044 l 885 1044 l 885 386 q 855 207 885 283 q 773 81 825 131 q 651 6 721 31 q 501 -19 581 -19 q 334 7 406 -19 q 215 82 263 33 q 142 197 167 131 q 118 346 118 264 l 118 1044 m 318 1294 l 468 1294 l 590 1097 l 499 1097 l 318 1294 z "},"Ú":{"ha":1003,"x_min":118,"x_max":885,"o":"m 118 1044 l 235 1044 l 235 364 q 254 240 235 293 q 308 153 274 188 q 392 103 343 119 q 501 86 442 86 q 604 103 556 86 q 690 157 653 121 q 747 251 726 193 q 768 388 768 308 l 768 1044 l 885 1044 l 885 386 q 855 207 885 283 q 773 81 825 131 q 651 6 721 31 q 501 -19 581 -19 q 334 7 406 -19 q 215 82 263 33 q 142 197 167 131 q 118 346 118 264 l 118 1044 m 542 1294 l 692 1294 l 511 1097 l 419 1097 l 542 1294 z "},"Û":{"ha":1003,"x_min":118,"x_max":885,"o":"m 118 1044 l 235 1044 l 235 364 q 254 240 235 293 q 308 153 274 188 q 392 103 343 119 q 501 86 442 86 q 604 103 556 86 q 690 157 653 121 q 747 251 726 193 q 768 388 768 308 l 768 1044 l 885 1044 l 885 386 q 855 207 885 283 q 773 81 825 131 q 651 6 721 31 q 501 -19 581 -19 q 334 7 406 -19 q 215 82 263 33 q 142 197 167 131 q 118 346 118 264 l 118 1044 m 500 1226 l 408 1097 l 299 1097 l 436 1294 l 564 1294 l 704 1097 l 592 1097 l 500 1226 z "},"Ü":{"ha":1003,"x_min":118,"x_max":885,"o":"m 118 1044 l 235 1044 l 235 364 q 254 240 235 293 q 308 153 274 188 q 392 103 343 119 q 501 86 442 86 q 604 103 556 86 q 690 157 653 121 q 747 251 726 193 q 768 388 768 308 l 768 1044 l 885 1044 l 885 386 q 855 207 885 283 q 773 81 825 131 q 651 6 721 31 q 501 -19 581 -19 q 334 7 406 -19 q 215 82 263 33 q 142 197 167 131 q 118 346 118 264 l 118 1044 m 567 1183 q 590 1238 567 1215 q 644 1261 613 1261 q 699 1238 676 1261 q 722 1183 722 1215 q 699 1128 722 1151 q 644 1106 676 1106 q 590 1128 613 1106 q 567 1183 567 1151 m 281 1183 q 303 1238 281 1215 q 358 1261 326 1261 q 413 1238 390 1261 q 436 1183 436 1215 q 413 1128 436 1151 q 358 1106 390 1106 q 303 1128 326 1106 q 281 1183 281 1151 z "},"ß":{"ha":772,"x_min":104,"x_max":696,"o":"m 300 100 q 333 93 314 97 q 378 89 351 89 q 445 102 410 89 q 510 144 481 115 q 560 218 540 172 q 579 329 579 264 q 563 418 579 379 q 518 484 547 457 q 449 526 489 511 q 363 540 410 540 l 325 540 l 325 638 l 372 638 q 491 679 444 638 q 538 801 538 721 q 496 921 538 875 q 368 967 454 967 q 253 916 294 967 q 213 776 213 865 l 213 0 l 104 0 l 104 790 q 120 896 104 846 q 170 983 136 946 q 256 1042 204 1021 q 378 1064 307 1064 q 469 1050 422 1064 q 556 1006 517 1036 q 621 928 596 975 q 646 817 646 882 q 613 681 646 742 q 497 593 579 619 l 497 590 q 549 574 515 586 q 615 532 582 561 q 672 451 647 503 q 696 319 696 400 q 674 197 696 256 q 613 92 653 138 q 517 19 574 46 q 390 -8 460 -8 q 343 -5 367 -8 q 300 3 319 -1 l 300 100 z "},"à":{"ha":772,"x_min":67,"x_max":672,"o":"m 554 92 l 551 92 q 506 38 533 60 q 447 4 478 17 q 382 -14 415 -8 q 318 -19 349 -19 q 209 -3 256 -19 q 131 42 163 14 q 83 108 99 71 q 67 188 67 146 q 81 273 67 235 q 125 338 94 311 q 206 381 156 365 q 326 400 256 396 q 440 406 385 403 q 554 411 496 408 l 554 464 q 546 526 554 497 q 518 578 538 556 q 464 613 499 600 q 378 625 429 625 q 297 615 329 625 q 243 588 264 606 q 211 547 222 571 q 194 493 200 522 l 88 493 q 180 662 104 610 q 379 714 256 714 q 591 653 519 714 q 663 481 663 593 l 663 136 q 666 67 663 104 q 672 0 669 29 l 554 0 l 554 92 m 554 329 l 371 321 q 233 289 282 317 q 183 193 183 261 q 225 105 183 140 q 342 69 267 69 q 415 80 376 69 q 483 111 453 90 q 534 165 514 132 q 554 243 554 197 l 554 329 m 203 1028 l 353 1028 l 475 831 l 383 831 l 203 1028 z "},"á":{"ha":772,"x_min":67,"x_max":672,"o":"m 554 92 l 551 92 q 506 38 533 60 q 447 4 478 17 q 382 -14 415 -8 q 318 -19 349 -19 q 209 -3 256 -19 q 131 42 163 14 q 83 108 99 71 q 67 188 67 146 q 81 273 67 235 q 125 338 94 311 q 206 381 156 365 q 326 400 256 396 q 440 406 385 403 q 554 411 496 408 l 554 464 q 546 526 554 497 q 518 578 538 556 q 464 613 499 600 q 378 625 429 625 q 297 615 329 625 q 243 588 264 606 q 211 547 222 571 q 194 493 200 522 l 88 493 q 180 662 104 610 q 379 714 256 714 q 591 653 519 714 q 663 481 663 593 l 663 136 q 666 67 663 104 q 672 0 669 29 l 554 0 l 554 92 m 554 329 l 371 321 q 233 289 282 317 q 183 193 183 261 q 225 105 183 140 q 342 69 267 69 q 415 80 376 69 q 483 111 453 90 q 534 165 514 132 q 554 243 554 197 l 554 329 m 419 1028 l 569 1028 l 389 831 l 297 831 l 419 1028 z "},"â":{"ha":772,"x_min":67,"x_max":672,"o":"m 554 92 l 551 92 q 506 38 533 60 q 447 4 478 17 q 382 -14 415 -8 q 318 -19 349 -19 q 209 -3 256 -19 q 131 42 163 14 q 83 108 99 71 q 67 188 67 146 q 81 273 67 235 q 125 338 94 311 q 206 381 156 365 q 326 400 256 396 q 440 406 385 403 q 554 411 496 408 l 554 464 q 546 526 554 497 q 518 578 538 556 q 464 613 499 600 q 378 625 429 625 q 297 615 329 625 q 243 588 264 606 q 211 547 222 571 q 194 493 200 522 l 88 493 q 180 662 104 610 q 379 714 256 714 q 591 653 519 714 q 663 481 663 593 l 663 136 q 666 67 663 104 q 672 0 669 29 l 554 0 l 554 92 m 554 329 l 371 321 q 233 289 282 317 q 183 193 183 261 q 225 105 183 140 q 342 69 267 69 q 415 80 376 69 q 483 111 453 90 q 534 165 514 132 q 554 243 554 197 l 554 329 m 385 960 l 293 831 l 183 831 l 321 1028 l 449 1028 l 589 831 l 476 831 l 385 960 z "},"ã":{"ha":772,"x_min":67,"x_max":672,"o":"m 554 92 l 551 92 q 506 38 533 60 q 447 4 478 17 q 382 -14 415 -8 q 318 -19 349 -19 q 209 -3 256 -19 q 131 42 163 14 q 83 108 99 71 q 67 188 67 146 q 81 273 67 235 q 125 338 94 311 q 206 381 156 365 q 326 400 256 396 q 440 406 385 403 q 554 411 496 408 l 554 464 q 546 526 554 497 q 518 578 538 556 q 464 613 499 600 q 378 625 429 625 q 297 615 329 625 q 243 588 264 606 q 211 547 222 571 q 194 493 200 522 l 88 493 q 180 662 104 610 q 379 714 256 714 q 591 653 519 714 q 663 481 663 593 l 663 136 q 666 67 663 104 q 672 0 669 29 l 554 0 l 554 92 m 554 329 l 371 321 q 233 289 282 317 q 183 193 183 261 q 225 105 183 140 q 342 69 267 69 q 415 80 376 69 q 483 111 453 90 q 534 165 514 132 q 554 243 554 197 l 554 329 m 150 842 q 193 953 158 911 q 294 994 228 994 q 350 988 324 994 q 401 971 376 981 q 448 951 425 961 q 490 942 471 942 q 537 964 524 942 q 551 1006 550 986 l 622 1006 q 579 894 614 936 q 478 853 544 853 q 422 860 449 853 q 371 876 396 867 q 324 896 347 886 q 282 906 301 906 q 235 883 249 906 q 221 842 222 861 l 150 842 z "},"ä":{"ha":772,"x_min":67,"x_max":672,"o":"m 554 92 l 551 92 q 506 38 533 60 q 447 4 478 17 q 382 -14 415 -8 q 318 -19 349 -19 q 209 -3 256 -19 q 131 42 163 14 q 83 108 99 71 q 67 188 67 146 q 81 273 67 235 q 125 338 94 311 q 206 381 156 365 q 326 400 256 396 q 440 406 385 403 q 554 411 496 408 l 554 464 q 546 526 554 497 q 518 578 538 556 q 464 613 499 600 q 378 625 429 625 q 297 615 329 625 q 243 588 264 606 q 211 547 222 571 q 194 493 200 522 l 88 493 q 180 662 104 610 q 379 714 256 714 q 591 653 519 714 q 663 481 663 593 l 663 136 q 666 67 663 104 q 672 0 669 29 l 554 0 l 554 92 m 554 329 l 371 321 q 233 289 282 317 q 183 193 183 261 q 225 105 183 140 q 342 69 267 69 q 415 80 376 69 q 483 111 453 90 q 534 165 514 132 q 554 243 554 197 l 554 329 m 451 917 q 474 972 451 949 q 529 994 497 994 q 584 972 561 994 q 607 917 607 949 q 584 862 607 885 q 529 839 561 839 q 474 862 497 839 q 451 917 451 885 m 165 917 q 188 972 165 949 q 243 994 211 994 q 298 972 275 994 q 321 917 321 949 q 298 862 321 885 q 243 839 275 839 q 188 862 211 839 q 165 917 165 885 z "},"å":{"ha":772,"x_min":67,"x_max":672,"o":"m 554 92 l 551 92 q 506 38 533 60 q 447 4 478 17 q 382 -14 415 -8 q 318 -19 349 -19 q 209 -3 256 -19 q 131 42 163 14 q 83 108 99 71 q 67 188 67 146 q 81 273 67 235 q 125 338 94 311 q 206 381 156 365 q 326 400 256 396 q 440 406 385 403 q 554 411 496 408 l 554 464 q 546 526 554 497 q 518 578 538 556 q 464 613 499 600 q 378 625 429 625 q 297 615 329 625 q 243 588 264 606 q 211 547 222 571 q 194 493 200 522 l 88 493 q 180 662 104 610 q 379 714 256 714 q 591 653 519 714 q 663 481 663 593 l 663 136 q 666 67 663 104 q 672 0 669 29 l 554 0 l 554 92 m 554 329 l 371 321 q 233 289 282 317 q 183 193 183 261 q 225 105 183 140 q 342 69 267 69 q 415 80 376 69 q 483 111 453 90 q 534 165 514 132 q 554 243 554 197 l 554 329 m 244 950 q 256 1005 244 979 q 286 1050 267 1031 q 331 1081 306 1069 q 386 1092 357 1092 q 441 1081 415 1092 q 486 1050 467 1069 q 517 1005 506 1031 q 528 950 528 979 q 517 895 528 921 q 486 850 506 869 q 441 819 467 831 q 386 808 415 808 q 331 819 357 808 q 286 850 306 831 q 256 895 267 869 q 244 950 244 921 m 472 950 q 447 1011 472 986 q 386 1036 422 1036 q 325 1011 350 1036 q 300 950 300 986 q 325 889 300 914 q 386 864 350 864 q 447 889 422 864 q 472 950 472 914 z "},"æ":{"ha":1235,"x_min":67,"x_max":1168,"o":"m 538 435 q 529 508 538 474 q 501 565 521 542 q 447 603 481 589 q 365 617 414 617 q 249 585 289 617 q 197 492 210 554 l 89 494 q 115 577 96 538 q 168 647 135 617 q 251 696 201 678 q 369 714 301 714 q 519 680 463 714 q 601 579 576 646 q 638 626 615 603 q 692 669 660 650 q 767 701 724 689 q 865 714 810 714 q 980 694 925 714 q 1076 630 1035 674 q 1143 517 1118 586 q 1168 350 1168 447 l 1168 322 l 646 322 q 654 236 646 279 q 685 158 663 193 q 749 100 708 122 q 851 78 789 78 q 986 121 942 78 q 1050 233 1031 164 l 1163 221 q 1121 131 1147 175 q 1056 54 1094 88 q 969 1 1018 21 q 857 -19 919 -19 q 758 -10 800 -19 q 685 19 717 0 q 628 65 653 38 q 581 128 603 93 q 480 21 543 61 q 311 -19 417 -19 q 192 0 239 -19 q 117 49 144 19 q 78 113 89 78 q 67 182 67 149 q 126 335 67 276 q 303 403 185 393 q 415 408 358 407 q 538 411 472 410 l 538 435 m 538 322 q 467 322 496 322 q 414 319 438 321 q 371 316 390 318 q 329 313 351 314 q 223 277 263 306 q 183 192 183 249 q 222 106 183 133 q 326 78 260 78 q 538 296 538 78 l 538 322 m 1051 411 q 992 562 1044 507 q 857 617 940 617 q 768 599 804 617 q 707 551 732 581 q 668 485 682 522 q 647 411 654 449 l 1051 411 z "},"ç":{"ha":772,"x_min":67,"x_max":731,"o":"m 615 463 q 597 508 608 482 q 563 559 585 535 q 509 600 542 583 q 426 617 476 617 q 331 597 375 617 q 253 542 286 578 q 202 456 221 507 q 183 343 183 406 q 197 244 183 292 q 240 159 211 196 q 313 100 268 122 q 421 78 358 78 q 498 92 465 78 q 553 128 531 106 q 592 181 576 151 q 615 239 607 210 l 731 225 q 697 142 718 183 q 642 67 675 100 q 562 10 608 33 q 453 -18 515 -12 l 403 -86 l 406 -86 q 458 -79 424 -79 q 533 -110 503 -79 q 563 -181 563 -140 q 547 -240 563 -215 q 508 -281 532 -265 q 453 -303 483 -296 q 393 -311 424 -311 q 318 -299 351 -311 q 265 -281 285 -287 l 288 -221 q 328 -240 304 -232 q 378 -247 351 -247 q 432 -235 410 -247 q 454 -193 454 -224 q 434 -146 454 -157 q 393 -135 414 -135 q 336 -150 361 -135 l 313 -121 l 388 -18 q 249 19 308 -12 q 149 101 189 51 q 88 213 108 150 q 67 344 67 276 q 96 500 67 432 q 174 616 125 568 q 287 689 222 664 q 421 714 351 714 q 528 699 478 714 q 620 656 579 685 q 688 581 661 626 q 726 474 715 536 l 615 463 z "},"è":{"ha":772,"x_min":67,"x_max":731,"o":"m 713 196 q 590 39 668 97 q 393 -19 513 -19 q 260 6 319 -19 q 157 78 200 32 q 90 186 114 124 q 67 321 67 249 q 90 481 67 408 q 156 605 113 553 q 260 685 199 657 q 399 714 322 714 q 533 691 472 714 q 638 622 594 668 q 706 509 682 576 q 731 353 731 442 l 731 322 l 183 322 q 201 216 183 261 q 247 140 218 171 q 315 93 276 108 q 399 78 354 78 q 480 91 446 78 q 538 124 514 104 q 578 167 563 143 q 601 213 593 192 l 713 196 m 614 411 q 549 562 603 507 q 401 617 496 617 q 309 598 349 617 q 244 549 269 579 q 203 483 218 519 q 186 411 189 446 l 614 411 m 203 1028 l 353 1028 l 475 831 l 383 831 l 203 1028 z "},"é":{"ha":772,"x_min":67,"x_max":731,"o":"m 713 196 q 590 39 668 97 q 393 -19 513 -19 q 260 6 319 -19 q 157 78 200 32 q 90 186 114 124 q 67 321 67 249 q 90 481 67 408 q 156 605 113 553 q 260 685 199 657 q 399 714 322 714 q 533 691 472 714 q 638 622 594 668 q 706 509 682 576 q 731 353 731 442 l 731 322 l 183 322 q 201 216 183 261 q 247 140 218 171 q 315 93 276 108 q 399 78 354 78 q 480 91 446 78 q 538 124 514 104 q 578 167 563 143 q 601 213 593 192 l 713 196 m 614 411 q 549 562 603 507 q 401 617 496 617 q 309 598 349 617 q 244 549 269 579 q 203 483 218 519 q 186 411 189 446 l 614 411 m 419 1028 l 569 1028 l 389 831 l 297 831 l 419 1028 z "},"ê":{"ha":772,"x_min":67,"x_max":731,"o":"m 713 196 q 590 39 668 97 q 393 -19 513 -19 q 260 6 319 -19 q 157 78 200 32 q 90 186 114 124 q 67 321 67 249 q 90 481 67 408 q 156 605 113 553 q 260 685 199 657 q 399 714 322 714 q 533 691 472 714 q 638 622 594 668 q 706 509 682 576 q 731 353 731 442 l 731 322 l 183 322 q 201 216 183 261 q 247 140 218 171 q 315 93 276 108 q 399 78 354 78 q 480 91 446 78 q 538 124 514 104 q 578 167 563 143 q 601 213 593 192 l 713 196 m 614 411 q 549 562 603 507 q 401 617 496 617 q 309 598 349 617 q 244 549 269 579 q 203 483 218 519 q 186 411 189 446 l 614 411 m 385 960 l 293 831 l 183 831 l 321 1028 l 449 1028 l 589 831 l 476 831 l 385 960 z "},"ë":{"ha":772,"x_min":67,"x_max":731,"o":"m 713 196 q 590 39 668 97 q 393 -19 513 -19 q 260 6 319 -19 q 157 78 200 32 q 90 186 114 124 q 67 321 67 249 q 90 481 67 408 q 156 605 113 553 q 260 685 199 657 q 399 714 322 714 q 533 691 472 714 q 638 622 594 668 q 706 509 682 576 q 731 353 731 442 l 731 322 l 183 322 q 201 216 183 261 q 247 140 218 171 q 315 93 276 108 q 399 78 354 78 q 480 91 446 78 q 538 124 514 104 q 578 167 563 143 q 601 213 593 192 l 713 196 m 614 411 q 549 562 603 507 q 401 617 496 617 q 309 598 349 617 q 244 549 269 579 q 203 483 218 519 q 186 411 189 446 l 614 411 m 451 917 q 474 972 451 949 q 529 994 497 994 q 584 972 561 994 q 607 917 607 949 q 584 862 607 885 q 529 839 561 839 q 474 862 497 839 q 451 917 451 885 m 165 917 q 188 972 165 949 q 243 994 211 994 q 298 972 275 994 q 321 917 321 949 q 298 862 321 885 q 243 839 275 839 q 188 862 211 839 q 165 917 165 885 z "},"ì":{"ha":308,"x_min":-26,"x_max":246,"o":"m 100 694 l 208 694 l 208 0 l 100 0 l 100 694 m -26 1028 l 124 1028 l 246 831 l 154 831 l -26 1028 z "},"í":{"ha":308,"x_min":65,"x_max":338,"o":"m 100 694 l 208 694 l 208 0 l 100 0 l 100 694 m 188 1028 l 338 1028 l 157 831 l 65 831 l 188 1028 z "},"î":{"ha":308,"x_min":-49,"x_max":357,"o":"m 100 694 l 208 694 l 208 0 l 100 0 l 100 694 m 153 960 l 61 831 l -49 831 l 89 1028 l 217 1028 l 357 831 l 244 831 l 153 960 z "},"ï":{"ha":308,"x_min":-67,"x_max":375,"o":"m 100 694 l 208 694 l 208 0 l 100 0 l 100 694 m 219 917 q 242 972 219 949 q 297 994 265 994 q 352 972 329 994 q 375 917 375 949 q 352 862 375 885 q 297 839 329 839 q 242 862 265 839 q 219 917 219 885 m -67 917 q -44 972 -67 949 q 11 994 -21 994 q 66 972 43 994 q 89 917 89 949 q 66 862 89 885 q 11 839 43 839 q -44 862 -21 839 q -67 917 -67 885 z "},"ñ":{"ha":772,"x_min":104,"x_max":668,"o":"m 560 419 q 547 510 560 474 q 513 568 533 546 q 464 599 492 590 q 407 608 436 608 q 334 594 369 608 q 272 551 299 579 q 228 482 244 524 q 213 386 213 440 l 213 0 l 104 0 l 104 694 l 213 694 l 213 576 l 215 576 q 306 674 251 643 q 436 706 361 706 q 507 696 467 706 q 583 660 547 686 q 644 587 619 633 q 668 467 668 540 l 668 0 l 560 0 l 560 419 m 150 842 q 193 953 158 911 q 294 994 228 994 q 350 988 324 994 q 401 971 376 981 q 448 951 425 961 q 490 942 471 942 q 537 964 524 942 q 551 1006 550 986 l 622 1006 q 579 894 614 936 q 478 853 544 853 q 422 860 449 853 q 371 876 396 867 q 324 896 347 886 q 282 906 301 906 q 235 883 249 906 q 221 842 222 861 l 150 842 z "},"ò":{"ha":850,"x_min":67,"x_max":783,"o":"m 783 347 q 760 212 783 278 q 692 94 738 146 q 579 12 646 43 q 425 -19 513 -19 q 263 12 331 -19 q 152 94 196 43 q 88 212 108 146 q 67 347 67 278 q 90 483 67 417 q 158 600 113 549 q 271 683 204 651 q 425 714 338 714 q 587 683 519 714 q 698 600 654 651 q 763 483 742 549 q 783 347 783 417 m 183 347 q 200 239 183 289 q 248 153 217 189 q 324 98 279 118 q 425 78 368 78 q 526 98 481 78 q 602 153 571 118 q 650 239 633 189 q 667 347 667 289 q 650 456 667 406 q 602 541 633 506 q 526 597 571 576 q 425 617 481 617 q 324 597 368 617 q 248 541 279 576 q 200 456 217 506 q 183 347 183 406 m 242 1028 l 392 1028 l 514 831 l 422 831 l 242 1028 z "},"ó":{"ha":850,"x_min":67,"x_max":783,"o":"m 783 347 q 760 212 783 278 q 692 94 738 146 q 579 12 646 43 q 425 -19 513 -19 q 263 12 331 -19 q 152 94 196 43 q 88 212 108 146 q 67 347 67 278 q 90 483 67 417 q 158 600 113 549 q 271 683 204 651 q 425 714 338 714 q 587 683 519 714 q 698 600 654 651 q 763 483 742 549 q 783 347 783 417 m 183 347 q 200 239 183 289 q 248 153 217 189 q 324 98 279 118 q 425 78 368 78 q 526 98 481 78 q 602 153 571 118 q 650 239 633 189 q 667 347 667 289 q 650 456 667 406 q 602 541 633 506 q 526 597 571 576 q 425 617 481 617 q 324 597 368 617 q 248 541 279 576 q 200 456 217 506 q 183 347 183 406 m 458 1028 l 608 1028 l 428 831 l 336 831 l 458 1028 z "},"ô":{"ha":850,"x_min":67,"x_max":783,"o":"m 783 347 q 760 212 783 278 q 692 94 738 146 q 579 12 646 43 q 425 -19 513 -19 q 263 12 331 -19 q 152 94 196 43 q 88 212 108 146 q 67 347 67 278 q 90 483 67 417 q 158 600 113 549 q 271 683 204 651 q 425 714 338 714 q 587 683 519 714 q 698 600 654 651 q 763 483 742 549 q 783 347 783 417 m 183 347 q 200 239 183 289 q 248 153 217 189 q 324 98 279 118 q 425 78 368 78 q 526 98 481 78 q 602 153 571 118 q 650 239 633 189 q 667 347 667 289 q 650 456 667 406 q 602 541 633 506 q 526 597 571 576 q 425 617 481 617 q 324 597 368 617 q 248 541 279 576 q 200 456 217 506 q 183 347 183 406 m 424 960 l 332 831 l 222 831 l 360 1028 l 488 1028 l 628 831 l 515 831 l 424 960 z "},"õ":{"ha":850,"x_min":67,"x_max":783,"o":"m 783 347 q 760 212 783 278 q 692 94 738 146 q 579 12 646 43 q 425 -19 513 -19 q 263 12 331 -19 q 152 94 196 43 q 88 212 108 146 q 67 347 67 278 q 90 483 67 417 q 158 600 113 549 q 271 683 204 651 q 425 714 338 714 q 587 683 519 714 q 698 600 654 651 q 763 483 742 549 q 783 347 783 417 m 183 347 q 200 239 183 289 q 248 153 217 189 q 324 98 279 118 q 425 78 368 78 q 526 98 481 78 q 602 153 571 118 q 650 239 633 189 q 667 347 667 289 q 650 456 667 406 q 602 541 633 506 q 526 597 571 576 q 425 617 481 617 q 324 597 368 617 q 248 541 279 576 q 200 456 217 506 q 183 347 183 406 m 189 842 q 232 953 197 911 q 333 994 267 994 q 389 988 363 994 q 440 971 415 981 q 487 951 464 961 q 529 942 510 942 q 576 964 563 942 q 590 1006 589 986 l 661 1006 q 618 894 653 936 q 517 853 583 853 q 461 860 488 853 q 410 876 435 867 q 363 896 386 886 q 321 906 340 906 q 274 883 288 906 q 260 842 261 861 l 189 842 z "},"ö":{"ha":850,"x_min":67,"x_max":783,"o":"m 783 347 q 760 212 783 278 q 692 94 738 146 q 579 12 646 43 q 425 -19 513 -19 q 263 12 331 -19 q 152 94 196 43 q 88 212 108 146 q 67 347 67 278 q 90 483 67 417 q 158 600 113 549 q 271 683 204 651 q 425 714 338 714 q 587 683 519 714 q 698 600 654 651 q 763 483 742 549 q 783 347 783 417 m 183 347 q 200 239 183 289 q 248 153 217 189 q 324 98 279 118 q 425 78 368 78 q 526 98 481 78 q 602 153 571 118 q 650 239 633 189 q 667 347 667 289 q 650 456 667 406 q 602 541 633 506 q 526 597 571 576 q 425 617 481 617 q 324 597 368 617 q 248 541 279 576 q 200 456 217 506 q 183 347 183 406 m 490 917 q 513 972 490 949 q 568 994 536 994 q 623 972 600 994 q 646 917 646 949 q 623 862 646 885 q 568 839 600 839 q 513 862 536 839 q 490 917 490 885 m 204 917 q 227 972 204 949 q 282 994 250 994 q 337 972 314 994 q 360 917 360 949 q 337 862 360 885 q 282 839 314 839 q 227 862 250 839 q 204 917 204 885 z "},"÷":{"ha":833,"x_min":65,"x_max":768,"o":"m 65 392 l 768 392 l 768 311 l 65 311 l 65 392 m 335 638 q 358 696 335 672 q 417 719 382 719 q 475 696 451 719 q 499 638 499 672 q 475 579 499 603 q 417 556 451 556 q 358 579 382 556 q 335 638 335 603 m 335 65 q 358 124 335 100 q 417 147 382 147 q 475 124 451 147 q 499 65 499 100 q 475 7 499 31 q 417 -17 451 -17 q 358 7 382 -17 q 335 65 335 31 z "},"ø":{"ha":850,"x_min":42,"x_max":808,"o":"m 258 143 q 425 78 324 78 q 526 98 481 78 q 602 153 571 118 q 650 239 633 189 q 667 347 667 289 q 629 499 667 438 l 258 143 m 592 550 q 425 617 529 617 q 324 597 368 617 q 248 541 279 576 q 200 456 217 506 q 183 347 183 406 q 219 194 183 258 l 592 550 m 136 115 q 83 225 100 165 q 67 347 67 285 q 90 483 67 417 q 158 600 113 549 q 271 683 204 651 q 425 714 338 714 q 568 691 507 714 q 672 628 629 668 l 763 714 l 808 669 l 714 579 q 767 470 750 531 q 783 347 783 410 q 760 212 783 278 q 692 94 738 146 q 579 12 646 43 q 425 -19 513 -19 q 281 4 342 -19 q 179 68 219 28 l 88 -19 l 42 25 l 136 115 z "},"ù":{"ha":772,"x_min":104,"x_max":668,"o":"m 560 110 l 557 110 q 466 12 521 43 q 336 -19 411 -19 q 258 -8 299 -19 q 183 32 217 3 q 126 110 149 61 q 104 238 104 160 l 104 694 l 213 694 l 213 267 q 226 176 213 213 q 260 118 239 140 q 308 87 281 96 q 365 78 336 78 q 438 92 403 78 q 501 135 474 107 q 544 204 528 163 q 560 300 560 246 l 560 694 l 668 694 l 668 0 l 560 0 l 560 110 m 203 1028 l 353 1028 l 475 831 l 383 831 l 203 1028 z "},"ú":{"ha":772,"x_min":104,"x_max":668,"o":"m 560 110 l 557 110 q 466 12 521 43 q 336 -19 411 -19 q 258 -8 299 -19 q 183 32 217 3 q 126 110 149 61 q 104 238 104 160 l 104 694 l 213 694 l 213 267 q 226 176 213 213 q 260 118 239 140 q 308 87 281 96 q 365 78 336 78 q 438 92 403 78 q 501 135 474 107 q 544 204 528 163 q 560 300 560 246 l 560 694 l 668 694 l 668 0 l 560 0 l 560 110 m 419 1028 l 569 1028 l 389 831 l 297 831 l 419 1028 z "},"û":{"ha":772,"x_min":104,"x_max":668,"o":"m 560 110 l 557 110 q 466 12 521 43 q 336 -19 411 -19 q 258 -8 299 -19 q 183 32 217 3 q 126 110 149 61 q 104 238 104 160 l 104 694 l 213 694 l 213 267 q 226 176 213 213 q 260 118 239 140 q 308 87 281 96 q 365 78 336 78 q 438 92 403 78 q 501 135 474 107 q 544 204 528 163 q 560 300 560 246 l 560 694 l 668 694 l 668 0 l 560 0 l 560 110 m 385 960 l 293 831 l 183 831 l 321 1028 l 449 1028 l 589 831 l 476 831 l 385 960 z "},"ü":{"ha":772,"x_min":104,"x_max":668,"o":"m 560 110 l 557 110 q 466 12 521 43 q 336 -19 411 -19 q 258 -8 299 -19 q 183 32 217 3 q 126 110 149 61 q 104 238 104 160 l 104 694 l 213 694 l 213 267 q 226 176 213 213 q 260 118 239 140 q 308 87 281 96 q 365 78 336 78 q 438 92 403 78 q 501 135 474 107 q 544 204 528 163 q 560 300 560 246 l 560 694 l 668 694 l 668 0 l 560 0 l 560 110 m 451 917 q 474 972 451 949 q 529 994 497 994 q 584 972 561 994 q 607 917 607 949 q 584 862 607 885 q 529 839 561 839 q 474 862 497 839 q 451 917 451 885 m 165 917 q 188 972 165 949 q 243 994 211 994 q 298 972 275 994 q 321 917 321 949 q 298 862 321 885 q 243 839 275 839 q 188 862 211 839 q 165 917 165 885 z "},"ÿ":{"ha":694,"x_min":11,"x_max":683,"o":"m 293 14 l 11 694 l 135 694 l 347 119 l 350 119 l 564 694 l 683 694 l 278 -292 l 160 -292 l 293 14 m 413 917 q 435 972 413 949 q 490 994 458 994 q 545 972 522 994 q 568 917 568 949 q 545 862 568 885 q 490 839 522 839 q 435 862 458 839 q 413 917 413 885 m 126 917 q 149 972 126 949 q 204 994 172 994 q 259 972 236 994 q 282 917 282 949 q 259 862 282 885 q 204 839 236 839 q 149 862 172 839 q 126 917 126 885 z "},"ı":{"ha":308,"x_min":100,"x_max":208,"o":"m 100 694 l 208 694 l 208 0 l 100 0 l 100 694 z "},"Œ":{"ha":1389,"x_min":78,"x_max":1324,"o":"m 836 164 l 833 164 q 769 78 806 113 q 692 22 733 43 q 606 -10 650 0 q 519 -19 561 -19 q 319 26 403 -19 q 181 147 235 72 q 103 320 128 222 q 78 522 78 418 q 117 775 78 672 q 221 942 157 878 q 363 1035 285 1007 q 519 1064 442 1064 q 649 1044 596 1064 q 740 998 703 1025 q 799 941 776 971 q 833 889 821 911 l 836 889 l 836 1044 l 1324 1044 l 1324 939 l 953 939 l 953 589 l 1318 589 l 1318 483 l 953 483 l 953 106 l 1324 106 l 1324 0 l 836 0 l 836 164 m 836 539 q 751 848 836 738 q 518 958 667 958 q 385 926 443 958 q 285 838 326 894 q 224 705 244 782 q 203 539 203 628 q 225 339 203 424 q 289 198 247 254 q 389 114 331 142 q 519 86 447 86 q 650 118 592 86 q 750 208 708 150 q 814 351 792 267 q 836 539 836 435 z "},"œ":{"ha":1311,"x_min":67,"x_max":1244,"o":"m 1128 411 q 1069 562 1121 507 q 933 617 1017 617 q 844 599 881 617 q 783 551 808 581 q 744 485 758 522 q 724 411 731 449 l 1128 411 m 1239 221 q 1197 131 1224 175 q 1133 54 1171 88 q 1045 1 1094 21 q 933 -19 996 -19 q 767 20 831 -19 q 661 135 704 60 q 559 22 621 64 q 393 -19 497 -19 q 255 8 315 -19 q 153 83 194 35 q 89 199 111 132 q 67 347 67 267 q 90 483 67 417 q 156 600 113 549 q 263 683 200 651 q 407 714 326 714 q 506 700 464 714 q 580 665 549 686 q 633 615 611 643 q 669 557 654 586 q 715 619 690 590 q 772 668 739 647 q 846 701 804 689 q 942 714 888 714 q 1056 694 1001 714 q 1153 630 1111 674 q 1219 517 1194 586 q 1244 350 1244 447 l 1244 322 l 722 322 q 731 236 722 279 q 762 158 739 193 q 825 100 785 122 q 928 78 865 78 q 1063 121 1018 78 q 1126 233 1107 164 l 1239 221 m 614 354 q 555 551 614 485 q 403 617 496 617 q 310 597 350 617 q 241 541 269 576 q 198 456 213 506 q 183 347 183 406 q 242 145 183 213 q 396 78 301 78 q 506 107 463 78 q 572 179 549 136 q 605 270 596 222 q 614 354 614 318 z "},"Ÿ":{"ha":850,"x_min":10,"x_max":840,"o":"m 369 426 l 10 1044 l 153 1044 l 428 531 l 697 1044 l 840 1044 l 486 426 l 486 0 l 369 0 l 369 426 m 490 1183 q 513 1238 490 1215 q 568 1261 536 1261 q 623 1238 600 1261 q 646 1183 646 1215 q 623 1128 646 1151 q 568 1106 600 1106 q 513 1128 536 1106 q 490 1183 490 1151 m 204 1183 q 227 1238 204 1215 q 282 1261 250 1261 q 337 1238 314 1261 q 360 1183 360 1215 q 337 1128 360 1151 q 282 1106 314 1106 q 227 1128 250 1106 q 204 1183 204 1151 z "},"ƒ":{"ha":772,"x_min":86,"x_max":631,"o":"m 99 -186 l 135 -186 q 181 -180 161 -186 q 214 -158 200 -174 q 236 -116 228 -142 q 249 -51 244 -90 l 315 486 l 182 486 l 190 558 l 324 558 l 367 879 q 430 1001 378 957 q 574 1044 482 1044 l 631 1044 l 618 939 l 585 939 q 542 935 560 939 q 511 917 524 931 q 490 879 499 904 q 476 814 482 854 l 442 558 l 590 558 l 582 486 l 433 486 l 363 -67 q 336 -180 354 -136 q 291 -249 318 -224 q 227 -283 264 -274 q 144 -292 190 -292 l 86 -292 l 99 -186 z "},"ˆ":{"ha":308,"x_min":-49,"x_max":357,"o":"m 153 960 l 61 831 l -49 831 l 89 1028 l 217 1028 l 357 831 l 244 831 l 153 960 z "},"ˇ":{"ha":308,"x_min":-49,"x_max":357,"o":"m -49 1028 l 64 1028 l 156 899 l 247 1028 l 357 1028 l 219 831 l 92 831 l -49 1028 z "},"˚":{"ha":308,"x_min":13,"x_max":296,"o":"m 13 950 q 24 1005 13 979 q 54 1050 35 1031 q 99 1081 74 1069 q 154 1092 125 1092 q 209 1081 183 1092 q 254 1050 235 1069 q 285 1005 274 1031 q 296 950 296 979 q 285 895 296 921 q 254 850 274 869 q 209 819 235 831 q 154 808 183 808 q 99 819 125 808 q 54 850 74 831 q 24 895 35 869 q 13 950 13 921 m 240 950 q 215 1011 240 986 q 154 1036 190 1036 q 93 1011 118 1036 q 68 950 68 986 q 93 889 68 914 q 154 864 118 864 q 215 889 190 864 q 240 950 240 914 z "},"˜":{"ha":308,"x_min":-82,"x_max":390,"o":"m -82 842 q -39 953 -74 911 q 63 994 -4 994 q 118 988 92 994 q 169 971 144 981 q 216 951 193 961 q 258 942 239 942 q 305 964 292 942 q 319 1006 318 986 l 390 1006 q 347 894 382 936 q 246 853 313 853 q 190 860 217 853 q 139 876 164 867 q 92 896 115 886 q 50 906 69 906 q 3 883 17 906 q -11 842 -10 861 l -82 842 z "},"–":{"ha":694,"x_min":0,"x_max":694,"o":"m 0 413 l 694 413 l 694 315 l 0 315 l 0 413 z "},"—":{"ha":1389,"x_min":0,"x_max":1389,"o":"m 0 413 l 1389 413 l 1389 315 l 0 315 l 0 413 z "},"‘":{"ha":386,"x_min":78,"x_max":308,"o":"m 238 1064 l 308 1031 l 189 694 l 78 746 l 238 1064 z "},"’":{"ha":386,"x_min":78,"x_max":308,"o":"m 197 1064 l 308 1013 l 149 694 l 78 728 l 197 1064 z "},"‚":{"ha":386,"x_min":78,"x_max":308,"o":"m 197 144 l 308 93 l 149 -225 l 78 -192 l 197 144 z "},"“":{"ha":772,"x_min":133,"x_max":639,"o":"m 568 1064 l 639 1031 l 519 694 l 408 746 l 568 1064 m 293 1064 l 364 1031 l 244 694 l 133 746 l 293 1064 z "},"”":{"ha":772,"x_min":133,"x_max":639,"o":"m 253 1064 l 364 1013 l 204 694 l 133 728 l 253 1064 m 528 1064 l 639 1013 l 479 694 l 408 728 l 528 1064 z "},"„":{"ha":772,"x_min":133,"x_max":639,"o":"m 253 144 l 364 93 l 204 -225 l 133 -192 l 253 144 m 528 144 l 639 93 l 479 -225 l 408 -192 l 528 144 z "},"†":{"ha":772,"x_min":94,"x_max":678,"o":"m 332 633 l 94 633 l 94 739 l 332 739 l 332 1044 l 440 1044 l 440 739 l 678 739 l 678 633 l 440 633 l 440 -168 l 332 -168 l 332 633 z "},"‡":{"ha":772,"x_min":94,"x_max":678,"o":"m 332 671 l 94 671 l 94 776 l 332 776 l 332 1044 l 440 1044 l 440 776 l 678 776 l 678 671 l 440 671 l 440 206 l 678 206 l 678 100 l 440 100 l 440 -168 l 332 -168 l 332 100 l 94 100 l 94 206 l 332 206 l 332 671 z "},"•":{"ha":694,"x_min":86,"x_max":608,"o":"m 86 522 q 106 624 86 576 q 162 706 126 671 q 245 763 197 742 q 347 783 293 783 q 449 763 401 783 q 531 706 496 742 q 588 624 567 671 q 608 522 608 576 q 588 420 608 468 q 531 337 567 372 q 449 281 496 301 q 347 261 401 261 q 245 281 293 261 q 162 337 197 301 q 106 420 126 372 q 86 522 86 468 z "},"…":{"ha":1389,"x_min":154,"x_max":1235,"o":"m 154 61 q 177 116 154 93 q 232 139 200 139 q 287 116 264 139 q 310 61 310 93 q 287 6 310 29 q 232 -17 264 -17 q 177 6 200 -17 q 154 61 154 29 m 617 61 q 640 116 617 93 q 694 139 663 139 q 749 116 726 139 q 772 61 772 93 q 749 6 772 29 q 694 -17 726 -17 q 640 6 663 -17 q 617 61 617 29 m 1079 61 q 1102 116 1079 93 q 1157 139 1125 139 q 1212 116 1189 139 q 1235 61 1235 93 q 1212 6 1235 29 q 1157 -17 1189 -17 q 1102 6 1125 -17 q 1079 61 1079 29 z "},"‰":{"ha":1389,"x_min":11,"x_max":1378,"o":"m 786 229 q 756 358 786 314 q 681 403 725 403 q 606 358 636 403 q 575 229 575 314 q 606 100 575 144 q 681 56 636 56 q 756 100 725 56 q 786 229 786 144 m 475 229 q 490 327 475 282 q 531 405 504 372 q 595 456 557 438 q 681 475 633 475 q 766 456 728 475 q 831 405 804 438 q 872 327 857 372 q 886 229 886 282 q 872 131 886 176 q 831 53 857 86 q 766 2 804 21 q 681 -17 728 -17 q 595 2 633 -17 q 531 53 557 21 q 490 131 504 86 q 475 229 475 176 m 11 799 q 26 897 11 851 q 67 974 40 942 q 131 1026 93 1007 q 217 1044 169 1044 q 302 1026 264 1044 q 367 974 340 1007 q 408 897 393 942 q 422 799 422 851 q 408 701 422 746 q 367 623 393 656 q 302 572 340 590 q 217 553 264 553 q 131 572 169 553 q 67 623 93 590 q 26 701 40 656 q 11 799 11 746 m 322 799 q 292 928 322 883 q 217 972 261 972 q 142 928 172 972 q 111 799 111 883 q 142 669 111 714 q 217 625 172 625 q 292 669 261 625 q 322 799 322 714 m 1278 229 q 1247 358 1278 314 q 1172 403 1217 403 q 1097 358 1128 403 q 1067 229 1067 314 q 1097 100 1067 144 q 1172 56 1128 56 q 1247 100 1217 56 q 1278 229 1278 144 m 967 229 q 981 327 967 282 q 1022 405 996 372 q 1087 456 1049 438 q 1172 475 1125 475 q 1258 456 1219 475 q 1322 405 1296 438 q 1363 327 1349 372 q 1378 229 1378 282 q 1363 131 1378 176 q 1322 53 1349 86 q 1258 2 1296 21 q 1172 -17 1219 -17 q 1087 2 1125 -17 q 1022 53 1049 21 q 981 131 996 86 q 967 229 967 176 m 754 1075 l 842 1075 l 143 -47 l 56 -47 l 754 1075 z "},"‹":{"ha":386,"x_min":68,"x_max":318,"o":"m 68 367 l 221 617 l 318 617 l 163 367 l 314 111 l 217 111 l 68 367 z "},"›":{"ha":386,"x_min":68,"x_max":318,"o":"m 224 361 l 72 617 l 169 617 l 318 361 l 165 111 l 68 111 l 224 361 z "},"€":{"ha":772,"x_min":4,"x_max":742,"o":"m 621 232 l 738 222 q 713 136 732 179 q 660 59 694 93 q 574 4 626 25 q 450 -17 522 -17 q 222 86 311 -17 q 108 379 132 189 l 4 379 l 29 460 l 101 460 q 100 487 100 474 q 100 514 100 500 q 101 549 100 532 q 103 583 101 567 l 4 583 l 29 664 l 113 664 q 155 819 126 749 q 225 939 183 889 q 322 1017 267 989 q 447 1044 378 1044 q 591 1019 535 1044 q 680 956 647 994 q 726 870 713 918 q 742 776 739 822 l 625 767 q 572 902 621 857 q 446 947 524 947 q 356 924 393 947 q 293 863 319 901 q 251 772 267 824 q 226 664 235 721 l 618 664 l 593 583 l 218 583 q 217 549 217 565 q 217 514 217 532 q 217 487 217 500 q 218 460 217 474 l 554 460 l 529 379 l 226 379 q 250 264 235 318 q 292 169 265 210 q 360 105 319 129 q 456 81 400 81 q 507 90 481 81 q 556 117 533 99 q 596 165 579 136 q 621 232 613 193 z "},"™":{"ha":1375,"x_min":17,"x_max":1169,"o":"m 200 972 l 17 972 l 17 1044 l 464 1044 l 464 972 l 281 972 l 281 472 l 200 472 l 200 972 m 1089 972 l 1086 972 l 888 472 l 838 472 l 639 972 l 636 972 l 636 472 l 556 472 l 556 1044 l 688 1044 l 865 596 l 1038 1044 l 1169 1044 l 1169 472 l 1089 472 l 1089 972 z "}," ":{"ha":386,"x_min":0,"x_max":0,"o":""},"¤":{"ha":772,"x_min":39,"x_max":733,"o":"m 117 301 q 61 399 81 344 q 42 514 42 453 q 61 629 42 575 q 117 726 81 683 l 39 804 l 96 861 l 174 783 q 272 839 218 819 q 386 858 325 858 q 501 839 447 858 q 599 783 556 819 l 676 861 l 733 804 l 656 726 q 711 628 692 682 q 731 514 731 575 q 711 400 731 454 q 656 301 692 346 l 733 224 l 676 167 l 599 244 q 501 189 554 208 q 386 169 447 169 q 272 189 325 169 q 174 244 218 208 l 96 167 l 39 224 l 117 301 m 642 514 q 621 617 642 568 q 565 701 600 665 q 484 757 531 736 q 386 778 438 778 q 288 757 335 778 q 207 701 242 736 q 151 617 172 665 q 131 514 131 568 q 151 411 131 460 q 207 327 172 363 q 288 271 242 292 q 386 250 335 250 q 484 271 438 250 q 565 327 531 292 q 621 411 600 363 q 642 514 642 460 z "},"¦":{"ha":308,"x_min":114,"x_max":194,"o":"m 114 386 l 194 386 l 194 -19 l 114 -19 l 114 386 m 114 1064 l 194 1064 l 194 658 l 114 658 l 114 1064 z "},"­":{"ha":464,"x_min":61,"x_max":403,"o":"m 61 417 l 403 417 l 403 311 l 61 311 l 61 417 z "},"²":{"ha":501,"x_min":46,"x_max":456,"o":"m 46 497 l 258 699 q 335 783 303 740 q 367 874 367 825 q 339 940 367 915 q 254 964 311 964 q 159 930 186 964 q 131 846 132 896 l 50 846 q 69 940 51 901 q 117 1001 88 978 q 183 1034 146 1024 q 258 1044 221 1044 q 347 1032 310 1044 q 408 997 383 1019 q 444 947 432 975 q 456 888 456 918 q 428 773 456 825 q 342 667 400 721 l 158 497 l 456 497 l 456 417 l 46 417 l 46 497 z "},"³":{"ha":501,"x_min":29,"x_max":456,"o":"m 139 788 l 329 972 l 64 972 l 64 1044 l 431 1044 l 431 972 l 247 796 l 247 793 q 266 797 256 796 q 288 799 276 799 q 345 788 315 799 q 399 754 375 776 q 440 698 424 732 q 456 619 456 664 q 443 542 456 579 q 403 478 431 506 q 335 433 376 450 q 238 417 294 417 q 144 428 182 417 q 82 462 106 440 q 46 513 58 483 q 29 579 33 543 l 110 585 q 119 548 111 565 q 141 517 126 531 q 178 497 156 504 q 236 489 201 489 q 332 522 297 489 q 367 611 367 554 q 328 703 367 672 q 235 735 290 735 q 146 715 174 735 l 139 718 l 139 788 z "},"¹":{"ha":501,"x_min":100,"x_max":325,"o":"m 236 922 q 176 885 211 903 q 100 854 140 867 l 100 932 q 149 954 124 940 q 199 985 175 968 q 243 1017 224 1001 q 274 1044 263 1033 l 325 1044 l 325 417 l 236 417 l 236 922 z "},"¼":{"ha":1158,"x_min":56,"x_max":1103,"o":"m 940 151 l 653 151 l 653 225 l 943 628 l 1029 628 l 1029 232 l 1103 232 l 1103 151 l 1029 151 l 1029 0 l 940 0 l 940 151 m 940 506 l 938 506 l 743 232 l 940 232 l 940 506 m 826 1044 l 919 1044 l 278 -17 l 185 -17 l 826 1044 m 192 922 q 131 885 167 903 q 56 854 96 867 l 56 932 q 105 954 79 940 q 155 985 131 968 q 199 1017 179 1001 q 229 1044 218 1033 l 281 1044 l 281 417 l 192 417 l 192 922 z "},"½":{"ha":1158,"x_min":56,"x_max":1103,"o":"m 771 1044 l 864 1044 l 222 -17 l 129 -17 l 771 1044 m 192 922 q 131 885 167 903 q 56 854 96 867 l 56 932 q 105 954 79 940 q 155 985 131 968 q 199 1017 179 1001 q 229 1044 218 1033 l 281 1044 l 281 417 l 192 417 l 192 922 m 693 81 l 906 282 q 982 366 950 324 q 1014 457 1014 408 q 986 523 1014 499 q 901 547 958 547 q 806 513 833 547 q 778 429 779 479 l 697 429 q 717 523 699 485 q 764 584 735 561 q 831 617 793 607 q 906 628 868 628 q 994 615 957 628 q 1055 581 1031 603 q 1091 530 1079 558 q 1103 471 1103 501 q 1075 356 1103 408 q 989 250 1047 304 l 806 81 l 1103 81 l 1103 0 l 693 0 l 693 81 z "},"¾":{"ha":1158,"x_min":56,"x_max":1103,"o":"m 940 506 l 938 506 l 743 232 l 940 232 l 940 506 m 940 151 l 653 151 l 653 225 l 943 628 l 1029 628 l 1029 232 l 1103 232 l 1103 151 l 1029 151 l 1029 0 l 940 0 l 940 151 m 896 1044 l 989 1044 l 347 -17 l 254 -17 l 896 1044 m 165 788 l 356 972 l 90 972 l 90 1044 l 457 1044 l 457 972 l 274 796 l 274 793 q 292 797 282 796 q 314 799 303 799 q 372 788 342 799 q 426 754 401 776 q 466 698 450 732 q 482 619 482 664 q 469 542 482 579 q 430 478 457 506 q 362 433 403 450 q 264 417 321 417 q 170 428 208 417 q 108 462 132 440 q 72 513 85 483 q 56 579 60 543 l 136 585 q 145 548 138 565 q 167 517 153 531 q 205 497 182 504 q 263 489 228 489 q 358 522 324 489 q 393 611 393 554 q 355 703 393 672 q 261 735 317 735 q 172 715 200 735 l 165 718 l 165 788 z "},"Ð":{"ha":1081,"x_min":47,"x_max":993,"o":"m 129 504 l 47 504 l 47 601 l 129 601 l 129 1044 l 453 1044 q 713 998 608 1044 q 879 878 817 951 q 967 712 942 804 q 993 528 993 619 q 963 335 993 429 q 870 166 932 240 q 715 46 808 92 q 497 0 622 0 l 129 0 l 129 504 m 475 106 q 649 142 575 106 q 772 237 722 178 q 844 372 821 296 q 868 529 868 449 q 846 682 868 608 q 774 813 824 756 q 643 904 724 869 q 446 939 563 939 l 246 939 l 246 601 l 568 601 l 568 504 l 246 504 l 246 106 l 475 106 z "},"×":{"ha":833,"x_min":101,"x_max":732,"o":"m 101 610 l 158 667 l 415 407 l 675 667 l 732 610 l 472 351 l 732 93 l 675 36 l 415 296 l 158 36 l 101 93 l 360 351 l 101 610 z "},"Ý":{"ha":850,"x_min":10,"x_max":840,"o":"m 369 426 l 10 1044 l 153 1044 l 428 531 l 697 1044 l 840 1044 l 486 426 l 486 0 l 369 0 l 369 426 m 458 1294 l 608 1294 l 428 1097 l 336 1097 l 458 1294 z "},"Þ":{"ha":849,"x_min":118,"x_max":792,"o":"m 118 1044 l 235 1044 l 235 856 l 450 856 q 701 770 611 856 q 792 533 792 685 q 765 396 792 456 q 695 296 739 336 q 593 235 651 256 q 471 214 535 214 l 235 214 l 235 0 l 118 0 l 118 1044 m 415 319 q 511 331 465 319 q 591 367 557 342 q 646 434 625 393 q 667 535 667 475 q 649 633 667 592 q 599 699 631 674 q 522 738 567 725 q 425 750 478 750 l 235 750 l 235 319 l 415 319 z "},"ð":{"ha":850,"x_min":67,"x_max":783,"o":"m 667 347 q 650 456 667 406 q 602 541 633 506 q 526 597 571 576 q 425 617 481 617 q 324 597 368 617 q 248 541 279 576 q 200 456 217 506 q 183 347 183 406 q 200 239 183 289 q 248 153 217 189 q 324 98 279 118 q 425 78 368 78 q 526 98 481 78 q 602 153 571 118 q 650 239 633 189 q 667 347 667 289 m 239 853 l 394 938 q 320 986 360 964 q 236 1028 281 1008 l 313 1089 q 404 1042 361 1068 q 486 988 447 1017 l 644 1075 l 697 1025 l 542 940 q 722 692 660 836 q 783 372 783 549 q 762 222 783 293 q 697 98 740 151 q 585 13 653 44 q 425 -19 518 -19 q 263 12 331 -19 q 152 94 196 43 q 88 212 108 146 q 67 347 67 278 q 90 483 67 417 q 158 600 113 549 q 271 683 204 651 q 425 714 338 714 q 646 606 561 714 l 649 606 q 561 766 608 696 q 451 892 514 836 l 292 806 l 239 853 z "},"ý":{"ha":694,"x_min":11,"x_max":683,"o":"m 293 14 l 11 694 l 135 694 l 347 119 l 350 119 l 564 694 l 683 694 l 278 -292 l 160 -292 l 293 14 m 381 1028 l 531 1028 l 350 831 l 258 831 l 381 1028 z "},"þ":{"ha":849,"x_min":104,"x_max":782,"o":"m 665 344 q 647 463 665 413 q 598 545 629 513 q 526 593 567 578 q 440 608 485 608 q 356 592 397 608 q 283 543 315 576 q 232 460 251 510 q 213 342 213 410 q 228 239 213 288 q 274 155 244 190 q 347 99 304 119 q 444 78 390 78 q 540 99 499 78 q 610 157 582 121 q 651 242 638 193 q 665 344 665 290 m 104 1044 l 213 1044 l 213 574 l 215 574 q 244 613 226 590 q 292 656 263 636 q 362 691 321 676 q 461 706 403 706 q 572 685 515 706 q 676 622 629 665 q 752 511 722 579 q 782 347 782 443 q 756 198 782 265 q 686 83 731 131 q 581 8 642 35 q 447 -19 519 -19 q 365 -8 401 -19 q 299 23 328 4 q 249 65 269 42 q 215 113 228 89 l 213 113 l 213 -292 l 104 -292 l 104 1044 z "},"Š":{"ha":926,"x_min":83,"x_max":843,"o":"m 701 772 q 685 837 699 804 q 644 897 672 869 q 572 941 615 924 q 465 958 528 958 q 358 942 403 958 q 285 898 314 925 q 243 836 257 871 q 229 764 229 801 q 239 713 229 738 q 274 665 249 688 q 345 624 300 643 q 463 592 390 606 q 633 549 561 572 q 751 492 704 526 q 821 410 799 458 q 843 294 843 363 q 822 179 843 236 q 753 78 800 122 q 635 8 707 35 q 461 -19 563 -19 q 188 63 283 -19 q 83 289 92 144 l 201 289 q 285 135 217 185 q 467 86 353 86 q 581 104 533 86 q 660 150 629 122 q 704 213 690 178 q 718 283 718 249 q 705 356 718 326 q 663 406 692 385 q 586 442 633 426 q 469 472 539 457 q 313 514 379 490 q 201 571 246 538 q 135 651 157 604 q 113 764 113 699 q 138 883 113 828 q 209 978 163 938 q 320 1041 256 1018 q 464 1064 385 1064 q 625 1040 560 1064 q 731 975 690 1015 q 792 882 772 935 q 821 772 813 829 l 701 772 m 261 1294 l 374 1294 l 465 1165 l 557 1294 l 667 1294 l 529 1097 l 401 1097 l 261 1294 z "},"š":{"ha":694,"x_min":53,"x_max":642,"o":"m 518 488 q 506 535 515 511 q 476 576 496 558 q 425 606 457 594 q 347 617 393 617 q 226 588 272 617 q 181 508 181 558 q 223 432 181 458 q 363 390 265 406 q 481 365 429 379 q 569 327 533 350 q 623 272 604 304 q 642 192 642 239 q 626 116 642 154 q 576 48 611 78 q 484 -1 540 18 q 347 -19 428 -19 q 210 -1 264 -19 q 122 49 156 18 q 73 121 89 81 q 53 204 57 161 l 161 204 q 172 160 163 182 q 203 119 182 138 q 258 90 224 101 q 344 78 293 78 q 419 85 385 78 q 480 106 454 92 q 519 140 506 119 q 533 186 533 160 q 524 222 533 207 q 492 250 515 238 q 429 273 469 263 q 324 294 389 283 q 225 317 271 303 q 145 355 179 332 q 92 413 111 378 q 72 497 72 447 q 93 588 72 547 q 151 656 114 628 q 242 699 189 685 q 357 714 294 714 q 465 698 415 714 q 550 652 514 682 q 606 581 586 622 q 626 488 626 539 l 518 488 m 144 1028 l 257 1028 l 349 899 l 440 1028 l 550 1028 l 413 831 l 285 831 l 144 1028 z "},"Ž":{"ha":849,"x_min":29,"x_max":819,"o":"m 29 97 l 671 939 l 79 939 l 79 1044 l 819 1044 l 819 947 l 178 106 l 804 106 l 804 0 l 29 0 l 29 97 m 222 1294 l 335 1294 l 426 1165 l 518 1294 l 628 1294 l 490 1097 l 363 1097 l 222 1294 z "},"ž":{"ha":617,"x_min":39,"x_max":578,"o":"m 39 94 l 443 597 l 53 597 l 53 694 l 578 694 l 578 600 l 174 97 l 578 97 l 578 0 l 39 0 l 39 94 m 106 1028 l 218 1028 l 310 899 l 401 1028 l 511 1028 l 374 831 l 246 831 l 106 1028 z "}}}
